<mxfile host="app.diagrams.net" modified="2021-06-14T11:11:56.385Z" agent="5.0 (Windows NT 10.0; Win64; x64) AppleWebKit/537.36 (KHTML, like Gecko) Chrome/91.0.4472.77 Safari/537.36" etag="Y2hmbiGNzM8qUJmQhuSt" version="14.7.7" type="github">
  <diagram id="nX37PMu83HzvQTyCS_j3" name="Page-1">
    <mxGraphModel dx="2062" dy="1065" grid="1" gridSize="10" guides="1" tooltips="1" connect="1" arrows="1" fold="1" page="1" pageScale="1" pageWidth="1169" pageHeight="827" math="0" shadow="0">
      <root>
        <mxCell id="0" />
        <mxCell id="1" parent="0" />
        <mxCell id="mN7ZcCOHAyqgkuWttd1r-66" value="" style="rounded=1;whiteSpace=wrap;html=1;" parent="1" vertex="1">
          <mxGeometry x="735" y="60" width="163" height="670" as="geometry" />
        </mxCell>
        <mxCell id="mN7ZcCOHAyqgkuWttd1r-1" value="Developer" style="shape=umlActor;verticalLabelPosition=bottom;verticalAlign=top;html=1;outlineConnect=0;" parent="1" vertex="1">
          <mxGeometry x="50" y="120" width="30" height="60" as="geometry" />
        </mxCell>
        <mxCell id="mN7ZcCOHAyqgkuWttd1r-3" value="Feature branch" style="text;html=1;strokeColor=none;fillColor=none;align=center;verticalAlign=middle;whiteSpace=wrap;rounded=0;" parent="1" vertex="1">
          <mxGeometry x="139.75" y="190" width="40" height="20" as="geometry" />
        </mxCell>
        <mxCell id="mN7ZcCOHAyqgkuWttd1r-4" value="" style="shape=image;imageAspect=0;aspect=fixed;verticalLabelPosition=bottom;verticalAlign=top;image=data:image/png,iVBORw0KGgoAAAANSUhEUgAAAOEAAADhCAMAAAAJbSJIAAAAbFBMVEX///8nep8gd51Yl7QAb5hpnbj7/f4Ncpqxy9moxdQYdZsAc5u71N9kmrUoe6Dp8fXg7fI3hKaPtsowf6Lz+PqKsMXS4+rD1+KgwdJRj63l7vN1pb2WucuCrMLQ3+dJi6tvpL18p74AY5FNk7GLYvKgAAAJL0lEQVR4nO2da4OyrBaGRzxgVJ5Hs1Jrz///j1tTYFH2qKkjw8v10Ui55bTAxeLrS6PRaDQajUaj0Wg0Go1Go9FoNBqNRqPRaLbBybJk6zysim9inJ+3zsWaXLBhkOPWuViRbG/UYHfrfKxHjhqFKN46H6uRGi1WunVO1uJEWoXkunVO1uIHtQpR7mydlZXAXS01iKJjYmAZijfEjJWhquPFjtfS09Z5WYcrYQq/t87LOkRcYbF1Xtbhmyu8b52XSSRju/6CKUSX0ffefuRM7mEeBaOSTi5D/5pXtj8nd0tQYITI/nvMq75ObIcnUt8bmzMzOJvwYYmRcEQxnib1pX7eDi7W/DzOIom7luWVg2ndKeNhEHdGrLWxheeEtPPwsqG0wKY5DKVNqUDD2rqvyWlOEBoqxTO3S4fqNCvB+r5L5fRT+DCO9kP5Zkm9gXLxgUB7sax+SMmybaBwoMnYaGSuWcWom+xghV6bpAK5ubwpm8QP3GtxYW02v7ql/34w5/XCMOLNx0MwytU9yK4nQXq6556FCQGlTbBFKvua9YrMLH5HMtb6WRGfl2HdwJ6a4tm9oVocTMJl1jqxuXuZDCchSE5kmCvDOiWs9vquSfrFAZmEhCfxtRTwfrdflfKGBIogbFQMLuGQPCoyPoLqmsLfpChCaI01/Wl7LbNBsxsWiXOX9sM2LEJZ5pGw4VhN716aeFTxQY1hu3ZTCi9GljW5FMhB5ldqWhP1tRrj5uXAIsSDhuCvccIgpzevR9+j46wL1os9tMe4twdCxA4SOFLIUkdrnBtsiq85J3FuR24WBOeaICjd6yUP0WtNrvscYD+YW9vcEGjZPGWakJ9T2fNR1C93tvHSHfHboDFTzl/ER30SEd5fDv/qLbJvz+rvc5EkAwUHzHdY8e1Nd7AzdLJL37iCyPCM+rcJclEiQrdyXEMKivilssbyCax7GyToMyfUsnMhVnJUyVZFa5wjLAccThzKgiMcQ1Eln7+GU8HxgvTNogbIQjioItkKMTGhNWl+1M87BRggEZJrrEhuGOQt+nSkPsTSDod3INCYYUymoK6jShazu+Z7z2vovHUVx+bvSiKrzYW5mvviwQxfhjWaBwEwlu35NQssikjyuT/htgw5LtF0gEQiRW8T8e8t1TINp2B3lMK16MB6mcEl79Hw2SaOFrrlDFxqNaN4sSrl5PxjiAQW+PnSrkigBT8wBHRtC2Ep+tODR5auT1lbiMRzJWiINUmBSb7sLZv+C1mFPGZNufR0p56r4CkzzPVZ/GWn3k6OCroe23831GikwuEMXnbeMnS74QeO/ft0jjblBtv/jl0/snl9ydM+caQ2j/PN0phvuhPwr5c1reT2esvZWKhDnMFHmF632ETuwNI+Y1FPL+dI2LU3pixiKUj4XFDgCdYHS3r98EWKUFDIpwBcIVgSFCFcIZtQvlPogb89L/vYfMLd6/rx5xSim/hTEPPf1FBoYLGa7obcd/6gQnGxBn6oVEQhEmYtqfB1RA2FBoaJrjIpbDwSANanCgmcW0PHlq0VIvsg4FI1UxXC5f3Ugr9srPCtt/pUhdCtphA+FiujkDvcJqHwgzIKjZgukTz1Y+ooZJ+Ub6IzhAIKu0qJqvbyORYur6IwdjMOf6O9CgsfAqaHoxUis3tE5z3UbdHE1HJbQ2Hjo8YARn7feOjFAPAVaUIZenRluK0PXcAC+7qmwn6GbRrrI4UWXd5/bNDovIcJqzxKKLy3xWU1Q2Lnixw7lToK8aFs7/dwNe22yd1YfhRQSE7UrTNM6HZ+Un5R000FhRG102rLre1fais1UEnh/YtW03vXk9b1taTPUEAhsp1ugyOqut2LVsqfsYpCbHEGxkMCklr/+0zhT8Isp9aeaXwXdmsqDLOUcxmwaRIIv9sUhbyDAaLYPF8Bu9TwfB7Vpr1rAna9q6AQ1c87QMfOZiP/XSWFe7/ZTA3cyhrnE2bxq6AQN8+78rWfxzTKVk4hX8gnj+f8KYVvPDhEhaxaovbxsihER3cnQHeXAIXkKqY5OL0K6cbgbquXLAoNhEXoJNiBu7fEJHRl9Emh0zl4dt7t0ih8xutRKILyfoWdFUNXFVVUmDyeRKNpqKjwMcgj+sFbSYWlhbFFoy0qqfCr+bbDdnsrqRCygkLu3zHD2wQZTCF5k4LQ0YL7k/QqpM9dztvkx6QIkbd27PoPc90pedoXOgPGKd6muHQK2YWfPoXR62M1Go1GDRbeZnaQYk8X4Hy0Fg0rmxFPrpGg2fyEFgy1cg4RwhJtJ3EuzSZstGDcscfOLjJ1T/9qZKi1T9GLO++ndBsQkVVIsalkx3bRk+MyGeKrh3ihO87jzBds8W2JpgMCa+0l2H341cxODS5x/jsH/pUy7CB9AKJEza9WEdjbL89hJhew+zqfVVGdb7AaOe9WiwIjt5Bwxq5BH0TUkiswhp+DnHkfG3CpEAJGjl6G4kPv5P27MKYDnPYwdp9cApuY0PA75ieBY9MKLmItaQMuhC8EwiL2xNbofwuR7D4JUrQ6mQEhXjHBTE12oRjtC4WyVVIQJIBrjEZqdHbVS4BB+eK19cXcI9ge0ZqCiPSFApUt5t6buImIhNE/w9IFu+pdJFe5xkMh9uWTRlTds3OPdZKcyyj3nqN8CiHDZJhYdAjxS1+bFEbVJXLLc5I0m3eTxE8P17sZv8aIRqiAcaDliV8qxqDti0D7CNBq7b04DGOPWFZ/iNYmUp+cMWif4ghnr13jGIjXDIJSxhF+iQXd1/0PgePvVo6EsaD74nkndR85QSPCYURdaySM590fkz3J8sGA7PRPJDwB40C6mOzv4+qn19AajjqPUSF2KNLF1f/n2QhpZJI3Bwc81O2r4nUaItnZCEPnWzhntzBD0gwPSBBH4vxyCno7S7nOtxhzRolzTrPrxax4tm+Rm/areyDVGSVTzplh+R46TFaqc2aUPytI/fOe1D+zS/1z1/4DZ+epf/6h+mdYTuDPnkM6GvXPklX/PGD1z3RW/1xu9c9W/+K1dGtLbC3oblApApGvAjVMyXU47d8kVb0ZsvArQ1P8P0y2V3mseHDBUrk6rYBvYpzLd5bTkjhZpupYqNFoNBqNRqPRaDQajUaj0Wg0Go1Go9FopOf/hjCYw0UmuawAAAAASUVORK5CYII=;" parent="1" vertex="1">
          <mxGeometry x="560" y="232" width="50" height="50" as="geometry" />
        </mxCell>
        <mxCell id="mN7ZcCOHAyqgkuWttd1r-5" value="" style="shape=image;imageAspect=0;aspect=fixed;verticalLabelPosition=bottom;verticalAlign=top;image=data:image/jpeg,/9j/4AAQSkZJRgABAQAAAQABAAD/2wCEAAkGBxETEhUTExMVFRUVGRUWGRUWFxcVGBcVGBcXFhsVFxgYHCghGBomGxgXITEiJikrMS4uGB80OTQuOCgtLisBCgoKDg0OGxAQGzAlHyUtLy0tKy0tLS0tLS0tMC0vLS0tLS0tLS0tLS0tLS8tLS0tLS0tLS0tLS0tLS0tLS0tLf/AABEIANQA7gMBIgACEQEDEQH/xAAcAAEAAgMBAQEAAAAAAAAAAAAABgcDBAUBAgj/xABIEAABAwIBCAUGCgkDBQAAAAABAAIDBBEhBQYHEjFBUWETInGBkTJCUlNioRQVIzNykrGywdEWQ1Rjc5PC0vCis+EXNYKE8f/EABoBAQACAwEAAAAAAAAAAAAAAAABAgMEBQb/xAA5EQACAQIDBAUJBwUAAAAAAAAAAQIDEQQhMRJBUWEFEyKh0SMyUnGRscHS8BRygZKio+FCQ1Nik//aAAwDAQACEQMRAD8AvFERAEREAREQBERAEREAREQBERAEREAREQBERAEREAREQBERAEREAREQBERAEREAREQBERAEREAREQBERAEWN0rRgXAdpCdMz0m+IQGRFjbK07CD2EFZEAREQBERAEREAREQBERAEREAREQBERAEREAREQBERAEWvLWRMNnSMaeDnAH3lfPxlB66P67fzQG0i1fjKD10f12/mnxlB66P67fzQXKiz3jDsp1DXF1hHCQGuLcSI2/iuPFSRn1u0D5w72Rv9H95/pXazseH5TqSwhw6OLFpuMOi4Lm08LrDqny2bv3NOPwPguph6alTT2e6553HV5RxDW3bldrd6zuaMRatIBdZ0DX2c4usX2O1W2qn0aNIrrHAiliw7grYWhXVqjR2cJJyoRbd8giIsRshERAEREAREQBERAEREAREQBERAEREAREQBFo1mVaeIhss8UZIuA+RjCRxAcdiw/pJQ/tdN/Oj/uQFY6T42mv6wuBAHWvbeVFn0sXW6mzW84+a15/pUl0gVUc1cXRPZIPg9rscHi99l2nauFJC7rYHz93sy/3BdLDQvTTtf8L/AAZ57pGts12tu2Wm018TFS0cZl1S3Do3PtrHyhKxl79hK2PgEHq+PnO4A8eaUTD09rY9C/D/ANiNbjYH28k7D91q2OqVvN7k/gan2l3zqP8AM/HvOXJTMbLZrSB0YdYOdtMpbtuvY2g8fKA8t+9sTvS9tZKiM9Na2PRMwt++KRQus3qnym/7cA/pd4KFT/17l4CeId86j09J8uZJNFrQK11vOga7aT5VjtKt9U3o7rIoawmaRkY+Dxi8jmsF7DC7jtVofpJQ/tdN/Oj/ALly66tUaPR4OV6EHfdxv35nURaNFlWnmJEU0UhGJEcjXkDiQ0my3liNkKsNIOVpZqkUcUjmMiAkkc02Jk2tFxwwNuOO4Kz1S7Xl1RVvO0zObfk0WC2cJTVSqk9DR6Rryo4eUo66EtzHztfI/wCCVZHTAdSTYJW/3fap2qRyrCS0SMNpIj0jHDaCMbe5W3m5lMVNNFOPPaCRwcMHDxBTFUOqnlo9COj8X9op3fnLXxOmiItY3wiIgCIiAIiIAiIgCIiAIsFVUsjaXyPaxo2ucQ0DvK0v0iov2qD+az80BXGlpoNXESAdWCR1j7N3KIyQsGt8mzq6+53m9J7XsBSjSZWRTVTDFIyQdBKy7HBwub4XB2qOTN8rFuPS72+cJbfeaulhVenp7jz/AElNxr22msuLXHmt5iigZr4sZbo3m1nWu3Utv5rbkp4hrfIx9XX3HzWyH0vYCwxAa5Fxcxyec32VuyxnHZ+s89u9kwG/2h4rOoLPLuXgarrSUV23o/6nxfM0JqWPpQ0RsA6J7rWNtYTNZf6q+fg8fq2eB4A8Vnn+eA1h8y/zh65pXyG4bW7/ADm+i3mo2FuS9i8COunfOb/M+fMxU1MzpcY2EdG11rG2sZdS/gtqKmiNvkY/KA2HeyF/pfvCsVKPliLj5tm8euutuGM4bPKYfKbujgbx4sd4KYwVtO5eAlWnl23p6T8TmugZr+QyxjifaxsC8XK9ELMPk2eDvZ9r2lkc3rWuLiKEbW7Q3FGs2Yt8W+x+ShRXBexCpVldXm9F/U+C5kt0RACpmsLAwxOsPasVbCqHRjWxQ1MxlkZGDDEAXuDQSLXAJOKsr9IqL9qg/ms/NcusvKS9bPR4R+RhfgvcdRU1XQmGvqojhrP6ZvNrsCfGynuUM/cnRfrxIdzYgZCewt6viVAc48qvrp45o4TAIwR0kh6z2ncWjv8AHas2Eco1U4q5g6SVOVBxnJLhfivrdnyPuTYewriQ0soYI+nlDBezGPc1guSTZoNtpW9V1bRtc0D2ja571qPr4h57O4633V2akKUn27ZczytGtiIJqjfPWyvp+D4nzFTPZjHNPGeLZHDHuKl2Yuctc+qFLI4TssXGQ4OY0cSNu4WPFRihiqKp2pSxOff9Y4arG8yT/nJWpmdmwyiiIvryvxkk4ngODQuZjJULWprPitDv9F08ZdyryduD18V9ab5EiIuedoIiIAiIgCIiALA2dheWBw12gEtviAb2NuBsfBcrKuUK0C1PR659KSWNjRzs0ku7MFXlVm1lx9QarqtlNhdkrGgNGxoF9nJTYq2S3Sw62Tnji+If6xtVb0+TYSRdjVIc6hll1FIyriiMbdVzpGubrjVcCMGmx8FEm5RmwIZH4k/iuhgXFKW0r6br8eRxel41JOGxLZ1veWzw5q/wOx8UwerZ4L34qg9Wz6q4NS6qftOzGzSGj3Lbp8oVLcHBju02PiFuqcG7Om/y/wAHOlTqKKarpvh1ni/A6fxVB6tn1U+KYPVM+qtUZUk9U3+YP7VjflOfdFH3u1vyV70vR/S/AxLr3/c/cXzG8clU/q2fVXjcmU5FxGwjsXDq31Ugs5wtwa4ALyidUxYNIt6LiCP+Fh6yO1bqnb7q9xn6uexf7Qr8Nt29t/hbmd74pg9WzwT4pg9Uz6q02ZVm3xM7n6v4FfMuVJz5MUfe7W/JZr0vR/S/AwLr726z9xfNfuNx2S6cbY4xfAYb19fFUHq2fVUdqoqiQ3cbndiAB2Dctqnq6tuF2OHtkH33usSqRvnSdvur3WM8qclFbOITe9bbXsdzr/FMHq2eC9+KYPVs8FptyrNvjYex5H4FH5Vk9Uwdsl/6VlvT9H9L+U1vLf5F/wBI/MdKKljZ5LWDuCxTz3wGz7Vwq2sqJBY6rRwY78brBFUTtsNtyGgHrEk7AN6r9oUX5rtxsXeBlUWVSLk921fvzz5EqzSyQ2srbPaHQwN1ng7HPdg1p47CexpVmQZqUDDdtLCD9AKIZrUOVaKExx0ULi5xe57pgHOJ2XA4CwssuUznFKC1scMIPq3tv9ZxJHdZcWrUdSbkz1OHoxoUo01u+u/UndNJHdzGavUsC1tuqTiAQNhstlVTmzkTLdE9zmRxyCQ3ex8resfSve4dzViZOrJ326WmdEd9pI5G9xBBP1VjaM6dzpIiKCQiIgCIiAIiIAiIgNHLFEJoJYj+sY5veRh71QcDS0FjsHMJjI4Fpt9i/RSqPSVkIwVHwpg+SnI17bGy8eQd9t+K2sJVUKmejyOf0lh3Vo5arMjkbrhfa1GTAec36zVnEzfSb9Zq7aa4nk3TmtzMi+4YS5wa0XJNgOa1XVcYNi9t+1blHUOjka8xyC2PXa5msNhtflvCo6kdE1fgXVGa7Uk1HK7s9PxM0mTyIzI1zJGNdqOLDfVdhgfEY81qLNTxQQtkERkcZAGHWsA1ms15AAPWcSxuOGA5rCq0HNxvNZl8XGjGpai7qwREWY1gi+HSBYnSEpclJmV8llgc66LxzgBc7FUuo8A42Fypno2zaMrxWzDqN+ZYfOd6w8hu547loZmZourHCaYFtM03DdhmI+xnP/6rfjjDQGtAAAAAGAAG4Lk4vE7fYjp7z0vR2BdLylTzvd/JkREWidYIiIAiIgCIiAIiIAiIgCIiALUyhQxzxuilaHMeLEf5sK20QFRy5KioJehq6eKSBxPRVRiaTjjqSm20f5ykMWQaIgOFNTkHEHo2OBHEYWIUzrKSOVhjkYHscLFrhcFQaozTq6Ql1A/pItpppT/tvOzvsskZLeYJU3qjt0rI4xZkbGgbmNa33ALQzooRUQ9UfKM6zefEd/2rlR52xtdqVUclNJwkabdoIGI5rtUuUoJPm5Y3/Re0nwBWSMnGSktxr1KcZxcJaMq8vAwN7heGUKdZw5ttmu+OzZN/B3bwPNQeso5InasjS089/MHeF16VeNRZa8DzeIwc6D7WnH60MZlXyXEr5KxvqGDzm9x1vurJKSjqzDCm5eam/UrmVeLLQUdRObQU8snMNIZ3vPVHeVLclaNaiSxqZRE31cXWd2F2wd11r1MZSjo7+o36PRtepqrLn4ELDyXBjGl73GwY0FzieFgp7mvo8JLZa6xtiIAbgfTI29gU1yHm9S0jbQxhp2F5xe7tcce5ddc2tip1MtFwO3hej6dDPWXF/WXv5mONgAAAAAwAGAA4ALIiLWN8IiIAiIgCIiAIiIAiIgCIiAIiIAiKoNI+XaqPKIZHM9jWNiIa02FziSRv71KVyJOyLfReBeqCTBU00cg1ZGNe3g4Bw8Co9XZg5Nl204aeLCW/YpQiAhJ0a0Y8iSdnISnZwT/prSHy5Kh3C8hwU2RW2nxKdXHgiIQ6N8mt/VOd9J7iuxR5s0UXkU8Q56ocfF1110VS54AvVANLmUpoYIRFI6PXeQ4tNiQGk2uMdq7+YdZJNQQSSOLnkOBcdp1XuaCedgFNsiL52JAiIoJCIiAIiIAiIgCIiAIiIAiIgCIiA5WX8vQUcfSTOsNjWjFzzwaN6rOv0rVLnfIxRxt3B13uPbsHguTnHUy5SykY2nDXMUYOxrQbF3uJKtrN/NilpIw1kbS63WkcAXOPEk7ByGAVskil3LQrqg0rVTXfLRRyN3ht2OHYcR4hcHPTK0VXWdPFfVc2IWcLEEYFpHEHhgrky/mtS1bC2SNodbqyNAD2niDv7CqIyrk19NUvgf5UbwLjYQbEOHItIPepVik00sz9HSyta0ucQGgXJJsABvJVa5f0qBriykjDwMOlkuAfotGNuZI7F9aYcsuayOlYbB4L323tBsG9hNz3LPo7zKibCypqGB8kgDmNcLtYw4g23uIxvzUJWV2XbbdkRtmlKvBBLYSOBaRfvBU3zRz+hrCInt6GY7Gk3a/6DuPI+9SepybBI0sfExzTtBaCFTmf+a3wCVksBcInm7cbmORuNgeG8dhU5Mh7Ucy71Dc78/YaM9ExvTTb2g2az6buPIe5efpYfig1mHSBmpy6bW6O/ZrG6gGj7Nv4fO+Se7ooyHPxxkkdchpPDAk93FQlxJctyM8mk7KDiXNETW8AwkDvJUizO0kPqJmU88TQ6Q2bJHsvYmzmns2g9yn8NBCxoY2NgaMAA0WstSLN+kbN07YI2yjzw0A9uG/ml0NlreQvTX8zT/xHfcK7WYVXHDkmGSVwYxokJcdg+VeuLpr+Zp/4jvuFV4K+pqY4KNgLmsuGRt85znOdrO4nrdgAUpXRDdpFh5N0jy1FdHDDAOhe4N61+k1d8hsbNA22xw3qfZRr4oI3SyvDGNxLj9nM8lHsx8z2UTNZ1nTvHWduaPQby4neoRpayy+WpFK09SLVuBvkcN/YCPFRa7yJu0rs2suaVpC4tpYg1uwPkxceYaMG99+5aFNpPr2OHSNjePRLSw25EKc5nZlQUkbXPY2Sci7nuF9UnzWA7APet3O+Shjp3Oq2MLDgG2Gs51sAzffnuS6ItK12zHmnnhT1wIbeOVou6JxubcWnzh/hAUmX55zXjlfXRmka4EP1gCdbVjvjruts1cFbOkjLbqWjOobSSkRtPC4Jc4dwPeQjjnYmMsrs0s6tI0FM4xQt6aUYE3tGw8C7a48h4rh5uaSKueqjidDGWvcGkMDtZoPnXudnNaWjXM6OqBqaga0bXFrWHY9w2udxaNlt5vwVtU9FFGAGRsbbAarQLDuR2WQV3mbKIiqXCIiAIiIAvCMF6iAo3MqURZXHSYfKTMx9J2sAryVR6UM1pI5TWwNJY7GTVvdjx+sw3HjuK9zf0puYwMqozIRgJGWDiPaacL8x4K7V8zGns5MttUTpCnbLlR4jxsYosN7wGgjxOr3Lu5e0puewspYywkW6R5F2/RA38ysGjPNSSWVtZMCI2nWZrbZH7n47Wg433lErZhvayRi0zRH4VGbYOhAB5hzr/aFaeb1SySlgey2qY2Wtus0AjuNx3LjaQM2vhtP1LdNHdzL4X4svz+0KtM1s8KnJ7nQvYXRgnWid1XMdvLSdh5HBRqiW7PMvZV3pmqmimhiv1nSh4HstY4E+LgsdRpZg1TqU8hfuDi0C/MglQqKOsyvV3OOzWdbqQx8P+NpKJESkmrI7sVO79HXG363X/wDETAXXX0K1LOgniv1xKJCPZcxrQfFjlNocjQtpvgureLU6MjiCLHvVKVtPV5Iq7tJBF9R5F2yx8Dx3XG49ylZh9mzL+RVpSaWotX5WneH2x1C0tJ5XIK+8g6SZKmsjhFOGxyHVB1iXjAnWOFtyrZlttHmmv5mn/iO+4VGtGWXaamnImY0GSzWzHzPZPBp4qS6a/maf+I77hUcbmSZ8mw1VOCZdV/SR7dcCR41m+0AALb7cVZaFHfayLrBVE54jocrve8dXpYpO1nUP4Edy7ujPPNzXso5yXNcQ2J5xLTujPLhw2LvaTc1HVLBPC28sYILRtezbYcXDcoWTJfajkdrOnO2CjiDyQ97xeOMHF19jidzeaqengrcsVJJNwNrtkcTeAHHltKjrHgvb02uWtIa4Dyw0bWjW2HkVYMWkanpoBFRUhbb1hFvpHVJLj22U2sVb2tSws2s3YKOLo4hifKefKeeJPDgNyh2mv5qm+m/7oUpzJy6+tpRM9mo7Wc02vqut5zb7vxBUW01/NU303/dChal5eaSLRoAMm09uEnvlepQoxo1/7bT9j/8AcepOqvUtHQIiISEREAREQBERAeEKN1+YuT5XaxgDSduoSwHuGHuUlRA0RmgzFyfE7WEAcRiOkJeB3Ow9ykyIgC5GWM3aSqsZ4WvIwDtjhy1hY25LrogIlHo6yaCD0TjyL3W+1SOioooWBkTGxtHmtAaPdvW0iCyC1MoUEUzCyWNsjT5rgCO0X2HmttEBEJdHOTSb9E5vIPdb3ldfJGbdJSm8ELWOOBdi51uGs65A5BdhFNyLI5mXMh09WwMnZrBp1hiQQdlwQtmgoo4Y2xRNDWMFmtG4d62kUEnDOa1J8IFV0LRKDrXGA1vTLRgXc+/au4iIDiZXzVoqk60sDS70x1Xd7m2v33XOpNHuTo3a3Ql/J7i4eGw96liJdkWRiija0BrQGtGAAAAA4ADYtDLmQqerYGTs1g06wxIIOzAjkuoiEmtk+ijhjbFE0NYwWa0bgtlEQBERAEREAREQBERAEREAREQBERAEREAREQBERAEREAREQBERAEREAREQBERAEREAREQBERAEREAREQBERAEREAREQBERAEREAREQBERAEREAREQBERAEREB//9k=;" parent="1" vertex="1">
          <mxGeometry x="440" y="229" width="67.36" height="60" as="geometry" />
        </mxCell>
        <mxCell id="mN7ZcCOHAyqgkuWttd1r-17" style="edgeStyle=orthogonalEdgeStyle;rounded=0;orthogonalLoop=1;jettySize=auto;html=1;exitX=1;exitY=0.5;exitDx=0;exitDy=0;entryX=0;entryY=0.5;entryDx=0;entryDy=0;" parent="1" source="mN7ZcCOHAyqgkuWttd1r-6" target="mN7ZcCOHAyqgkuWttd1r-8" edge="1">
          <mxGeometry relative="1" as="geometry" />
        </mxCell>
        <mxCell id="mN7ZcCOHAyqgkuWttd1r-7" value="" style="endArrow=classic;html=1;exitX=0.5;exitY=0.5;exitDx=0;exitDy=0;exitPerimeter=0;startArrow=none;" parent="1" source="mN7ZcCOHAyqgkuWttd1r-6" edge="1">
          <mxGeometry width="50" height="50" relative="1" as="geometry">
            <mxPoint x="560" y="580" as="sourcePoint" />
            <mxPoint x="190" y="150" as="targetPoint" />
          </mxGeometry>
        </mxCell>
        <mxCell id="mN7ZcCOHAyqgkuWttd1r-8" value="" style="shape=image;imageAspect=0;aspect=fixed;verticalLabelPosition=bottom;verticalAlign=top;image=data:image/jpeg,/9j/4AAQSkZJRgABAQAAAQABAAD/2wCEAAoHCBYIFRUWFhYZGBUYGhocHBwcGhoeGB8jHBgcIxkZGRYcIy4oHB4sIRkcJzgsLC8xNTY2HCQ7QDszPy40NTEBDAwMEA8QHxISHzYsJCg2ND8xNDQ0NDQ0MTY0MTg0ND80NDQ0NDQ0NDQ2NDU0NDU0NDQ1MTQ0NDE0NDo0NDQ0Nf/AABEIAOEA4QMBIgACEQEDEQH/xAAcAAEAAwEBAQEBAAAAAAAAAAAABAUHBgIDCAH/xABEEAACAQMCAwQHBQUGBAcAAAABAgADBBEFEiExQQYiUWEHExQycYGRQlKCobEVI3KSwSRiotHh8BZDssIzNGNzg6Oz/8QAGgEBAAMBAQEAAAAAAAAAAAAAAAIDBAEFBv/EACcRAQACAgEDBAICAwAAAAAAAAABAgMRIQQSMQUiQVFhsXGhEyOB/9oADAMBAAIRAxEAPwDZoiICIiAiIgIiICIiAiIgIiICIiAiIgIiICIiAiIgIiICIiAiIgIiICIiAiIgIiICIiAiJGvLxLFC9R1RFGSzMFUfEmBIiZprfpbt7Ylbam1dh9pu5T+WRub+UDznM0O2WsdpXK23dAPH1VNAq+TVKu4A/MGHdNxiY8ND16rxN4AfA1mB+iJifx17Q6X3hUNZRzCmi4+jKHPy4yO4+3e2WxxMh070rVrJhTvrbBHMoGSoOPM0ah4jzDDymm6PrFHWqYq0HDofDmD4Mp4qfIySKxiIgIiICIiAiIgIiICIiAiIgIiICIiAiIgIic5207Qr2ctqj7lFYqRSViMsx4AhebBcgnyECv7V9tl0hxbW6G5vG4CmvupkZBqEeXHHhxJUcZxOtWwH7/Vbhq9QcVtqZ20kzyHDqc44cTniWHGVvZ3W10+k4tqVa5vqvGrVCFtu45Kg8ST1JxgnJ6AS+7C2P7WuKtSuhVrZlApvxYO4J9Y4PUD3fMk+E5M6jaURuUjSuyR1sI9zSS2t1O6na01CseHvV6gG7J+6CPPHKdxb00skVKaKiKMKqgKo+AE91H3fCV2qarQ0hQ1eqlMN7oY95sc9qDifkJmtabStisQsTUJnnefGQdM1Ojqyb6NRXTOCRngcZwynipwRwI6yZIztPhH1GwpaomysiVE8GUHHmp5qfMYMzjVNJuOwFUXdmxa3JAdGJIAzwR/vJk8G5qT58dPlH2p7R22goFro1Q1QwFNQCWUcGLbiAF444yVLWieEbVjXLoOzOv0u0lBa1I+TKfeRhzVvrwPUEGXU/PHY/tJT7P3++kXW0qsFdXxuVSe6WIJBKEk557d3Uz9DzUzkREBERAREQEREBERAREQEREBERAREQP5MEx/xvfXFxXZha0fA8dm4ilTTwLbSSeeSeWQRqvbTtRR7N0SXO6q6sKdMe8xxjcfBRnifkMnAmQ9lX9XZsg+1ccfMJSTH5uYdh0dTWHRdlBRQoj3UQAH4s3Mmff0dFnub9yScigpJOSTh85J64lJOp9G9DbQr1OtS4f6JhQPqrfWQyTqqVI3Z0+oXq6dSq1mGVpo7keO1ScflON0Hsl+1/wC2ahmpXq4YISQiKfcUqOPI+6eA8CcmdyyhwQQCDwIPI+RE/szRaYjhdNdzyh6bpVHSgwo01phyCwUYBIGAfpJkj6qtRKFR6XGqqF0X7xXvbPxY2/OLC8TUaaVUO5HUMp8iOR8xyPwiYnzLsTHhInnYN27A3YxnHHGc4z4cZB1HUxYVLZGHdruybs42tsLIMddxUj44lio3Rocd277KU9Vo1KqIFuEUtlQBvCjLK4HvZGcHmDjpkHr+xN+dUsbWoxyxpqGPiy91j9VMq2uzRvGtnPcq0g9PPUr3a1MfLa34mkT0P3ANh6rcC9GrUVhnioLFhkdAcnHz8JfimdalTfXmHfRES1WREQEREBERAREQEREBERAREQP5KXtV2gp9m7dqz8TyRc8XY+6o8upPQAmXJOJgfabVz2yvWIJ9lo5VB0Izxf4uRn+EDwnLWisblZix2yXilfMq6pVfV3qXt0dxPEL0IHuqq9EHIDrzOeJP27K6Bd6zSbY60bYOWaoxwC20KdhAy2MAHiB554T12gOKDBeQ2/kw4Ts9Z01LjR7ZVGQKNHYMnbvqbF9Y6j3iC7HjwyxlNLzMb+5betwVwzXFX4jcz9zLldb0i57KbHqOte3c43rngeeDniDgEjiQcHlOy9HVcGjWp9adZyPNagDqfqzD5SEnY5rYVbEVHa0rUw6OwDerq06ibsAYADBgccOR8CTedluzKdm1qbXd2qFdxbAHdBwAo5czzJi9omNMlazE7X8REpWuR1fXNS06s6pZitQyNjIWzjA97BODnP2RHYOxubX2l66epSq+9KOfcJLGowXJ2A5XhnoeAnXRJd3GtI9vO1R2p0j9t2z01O2oCHpty2upyhz08M+BlToWtVe0VtVpK/qL6mNj5UHawOA+0g91sEHgcHPkT1xXbOK7Z6Q9m37Rtjsr0hmov2aiAd7cOpCjj4gDqqxXniXLfbzpXZS8q16Ne9u95otuREzzPPL7VwDyIC8RwzOB07Uq/Z25e5oHgtWojr9l13nuv5HoehwfjsPZ/WF1m2S4ClAwbKnjgoSGweoypwfDwmSaQPaKOWGQ7OxH8TGS75rzK/p+njNbt/Ey3jQdYp69QSvSPdYcQfeUj3kYdCDwlnMK7Aa2ey956h2/s9wVGTyVjwR/Lj3G8sE8Fm6TRExMbhivSaWms+YeoiJ1EiIgIiICIiAiIgIiICIiBxHpU1s6RZMqHFS4Pq18QpGajeXdBGehYTM9JtfYqSj7bd4/PkPkMCW/pRuv2nqdKhzSiigj+83ff6oEEh1GyZl6i3ir2/ScUc5Z/iHwuKXtCMn3gR/kZfej7XkuaXsFwQroSqbjgOuc7AfvqeQ8MY5GUsg6hpiXvH3W8fH4jrKsdoj2z4aut6WcsRavmP7hr+o6pR03Z611QuwVAfeZiQAFUcTxI48hJh4TIvR3aJU1HZW77pTZkLEkblKlTg9QrMR4c5r7jBMstWI8PD53MT8PMTwKilimRuADEdcEkA/DKn6T3IpEr9erVLe2rtRGaq03ZQBk5CkjC9T5Txr96lrtSop9nqEo9VX2+rLDuFiOKgtwDA904nM32l6tpxJtrr2in0WoKfrPIbmXDfHcJKtUZlNX0h2ddQVNV3I/8NaTs+ce6OGPzkeu1/2qVk9V7HauCGaoN1w6nmAnDZkZBz9TIGn6hrQq01qUAELoHISn7u4bzuV/DPKeLvQtV1+rUStWNK23uB3kGU3nbhKfFu7j3yJZqI+kdzK51C/oaRptdLdw60KfqQwIPfcbQCyjBfLZOOWek4ewp+ppovgo/TjLTtstOyW102gMIhFRx1PPbvPUnLsfw+UhynJPER9vW9MpzNv+K3XLX2imW6px+X2h/X5TZfR9rZ16ypOxzVT93U8dyY4nzZSrfimVkbuEuvQ3em0ubq1J4Mu9R5o21j8SrL/LLentuJhT6rh1aMkfPEtiiImh5BERAREQEREBERAREQERED8+XVf23U76r4PUUfhcIPySSJWaYc17s9TUb86j5lnMOaffL6b06NdPH52REiXl+ln7xy33Rz/0+criJmdQ2XyVx13adQ8NcHRrm3u15I67x4qch+HXKFh8cTbmcVQrKcqwBBHIgjII+UwCoK+r8l2pzGeAPhx5t+k7XsF2zSwQWl22zZwR290L0pufs46HljA4YGdk47RSNvmc+bHfNM08T+3V9o7WqNlzbjdXoZ7ucCojY30vidoZT4qPGWGk6lT1aktWmcq3MHgyke8jr0YHgRJFGslwMo6uvQqwYfUTi+0zpoFdq9tcUadw2DWt3cBKo+9t+w/g3DPjzzXEb4Qmdcu0uKCXSOjqGRwVZTyIIwQZwdXsvqWkHbZXmaOe6lRssg6KAyspHmMfCWmjdv7TUQA7eofqrnuZ/u1R3SPjg+UvKmuW1NdzXNEL4+sT/OI7q8acnVnL21lrbkB7mgi9W2IzfICmAfqJ0WraovZ22NSsxdkULkhVao+OACqABk+AwBk9JQaz6R7ayBFENXfpjK0x8XYcR/CD8pnWoa4+v1g9y52D3UUYRfIDp5scn+k60m08xpG1orHHKVpdY6g9a4dt1V3JbyzjgB0HIDyUCWcoL20bTW9ZSPc69ceR8VlpYX63o4cGHNf6jxErz4rVncvZ9N6vHakY44mP7S5/Oylb2LWLYg4DkqfMNTZQP5gp+U/siWR26lYn/wBWiP8A7f8AWRwT7lnqld4d/Uv0NERNr5wiIgIiICIiAiIgIiICIiB+c6KG2u71DzFWoP5arAfkRJ9SoKQLMcAczPfbG2/Zur1x0q4Zfg6DP+NGEg6xTNSi+OmG+hyfymPLX/ZG/l9B0OWY6WZrzMbQK+qPdnZRU5P2uvxH3R5mSrHSFod9zvfnx90fXmfMz+6CVal3QAwJDeZ6E/IzxUqM/M/7+E9DFirSu4fPdT1WXNee6U6pdqnLify+sqb2n7UwfgHGMcAQcHgGB5ifWJbbnyy19s7he2WqaXW/85Yeoc86lBnFI+YRGBT4AH4yl02ypXau7KWD1H27mYkKD3RuJySBwyePCeCMyRo5CoydUqN9GwRMfU1mtdw9j0ua3zatETxPlHudAR+NNip+63Efzcx+c9aeKFuypcWDPU6MlZ0DY6lMlT0yQwHHlLWV9O1qXtx/ZabVaiKd4D90A8Bl2bA454A9PIzPjva3Hl6PWdLgpEX8c86+v4eKvq9XqECnTtaSNgU0A9Y3m9Q95j+X6mTc2aGm6KijgcHHHIHA555n1u9Gu9AZqtWiXWpjLUe+EwDwfhkcOvLhzkR9UXYX2VApHBih2nw7/LnO3i/dwj02Tpa45iZjc73vz+EfS7oqi54rjGPyketRW3r0jTOAxHDw494fDGZ7s12Ig8v1nuwT11dm6IuPmf8AZm3NOsfLxekpNupiK/a6kfR09o1WyXwdD/IWc/kskSX6NbX9oaq1TGVoJUbPTJUU1HzDMflMGCPdt7/qltYYj7luERE2PniIiAiIgIiICIiAiIgIiIGU+mjSyot7xBxpn1bnyJ3UyT4Btw+LzlqNQXCBhyYZ+vSbZrulJrVCrbv7tRSM9QeasPNWAI+EwPTg+nVKltVG2pTZhjpke8B5H3h4g5lGeu43Hw9P03NFbzjt4lH0gm0rvTPI5x8uKn+UmSbhdjsPP9Z8dXX2erSqeYB+R/yJ+kl364b4ia8Fu6m3mdbi/wAWeYRp4qOKYJPIT3PjdLvQj4f9Qlk+GWPL7sNvAz4rXNk5cKWVlwQOeQe6fpkSdfjD/ISHVBZSBwOOE5esWiaysw5bY7RevmFhpNtW18t/yqKnDMOLk9VUnr4nHDzlnd2v/CdSjdW4IRMJWTJO5GPFjnr/AF2+cruz/aZdMRaNZCqrnDqM8ySSy9efMZ+E69XpavTYKyujqVO055jB+BkKY6RXUeU83UZsl+687h0949JEu63tJf19qaiUWddqolIgvSTmAcjJ8ZxdpWTTrGk1Qd1aKAg9SUA24PMknHznx0W6RNPv6FVEN1a0qlujkDfsrZVFVuYG58AeGPGU2v3vtLrRQ/u6OAfBnAx8wo4fEnwinG0cnOlPSX1KkkAc2IHIZ47R5DlJmiU9qFzzdi3y6f785AviXCovvOQJdF0tFALBQAAMnHKZ+qtxFYet6RjjunLbxD+Xtf2ZGfwHD49B9Z3PoZ0k21tUuGHervhT12U8gH5uX+WJmlc/tuvQtkZVV3VSxOFBY4zk+AycdTgDjP0VYWa6fTSkgwlNVVR5KMD9JHDTtrufk9RzxkydtZ4j9pUREuecREQEREBERAREQEREBERA/kzL0rdlWugL6gD62mB60LzZF5OB1Zeviv8ACBNNiHYnXMPzPfXS6hb7vtIylh8eGR5HMn1n9alNvFR+YE6D0jdhDphe6th+4OTUpj/l9SyjrTzxI+z8Pd5q2bfb0z4cPpkf0ksMa3EHWZpyzW0+fE/l4kG4u9m5SOORgjljI5+BxJ3A8xkdQZ87mjTKOBTCttbBBPA44H6y20TrhmrMb5er7UabNkNkY8DIqaitU4QM58FGT9AZuvZns/ZG3t6qWtAF6VN93q0Ld5Ac7iCes6WnTFMYAAHgAAPoJXN5lbGOsPzY1KrVGPZa7D/2nP6LIvstezbelG4pEddlRfz2jhP1BE5NpdisR4fletqdS4cuz5chVZhgE7GBXcBwJBVT+ET7W90zbURCzHgFAZmJ8gBknmZoXpHC0by2cj3kqgnHE7WXH/WZy1peihf2VUcAKtME+RcAn6OZ2N9u9kzEzqYV1jp11qdwtJKbCvjgrAoUHVmDe6O9z8xjpO4tfRrRsCr6jeKGYgLTRsFz90O/ec+SqDOn7T0RYarptwBj1oqUHPjhd1PPzJ+glpfaV7HXNeibZK1T3qlwKlSof7lM712L/dU48pD52nuddvwqe0Ho7s7+2It6K0qwQmmwDKSQOC1A3Fg3IlgSM5kr0W622tWKhyTVoMabFs7iAAUY54k7SASeZVp1Njv2A1HR2PVFKr8gWb9ZmvYNjpesahbD3KgaoB0GHVkwP4axHyEONViIgIiICIiAiIgIiICIiAiIgIiIFL2wT1tjeL429X/82mC2DZt0/ib9T/nP0ZeW63lN6be66sh8cMpBx8jMO1r0b3ui5aj/AGimPucKmPFqR978JY+Qkq27ZRtXujSmn8YZEhU7/BKuCrA4PA8D4FTxBkxKgfkQfgZbFolR2zXy2r0a3XtWm2p6ohpn/wCN2T9FB+c6qZ56HbnfbV6XWlXbH8LqrD/FumhyhpIiIGQ+lRP3lo3nXX6hD/2zPNVY0wjL7ykkfEYI/MTTfSrQeqttsUu/tDKqjmSyPwH8sz5tFuru5pWj0wleoNyqxAGMMdzMpbAwjefDlJRaO3SM1nuiWj9v9ep50196Arc06jDcC4QodzFRxCjcOnhJt32x026YF3o1W5DNBnY+Q7plloPYGy0qkivb0qlUKu93TfubA3sofO0E5wBifLUfR/Qr1fXUKtW0qFQpFAoiHHXbt4H4EDhIppelX9AI70aa0kwdzepaiOXFjvVcgePKc16PwNa1K/vlH7oKtFG6NwTJH4aan4OJNrejT23hcX93VT7pcAH4ggj8p2GkaVS0WktGioSmvTiSSebMTxJJ6mBYxEQ4REQEREBERAREQEREBERAREQERECh17spadoONeiC/IOuVqD8a4JHkcjynE3fodpsSaV06jwdFcj5qUmqRAyb0b0D2d1O9sXYtlFKtjAbZgqQuTgla2fwmazMy7dL+w9U06+5I59U56dVyfwVGP4JpsBERA4XtqNlSyPhe0v8SuP6yn7VsNO1LS7k8BvNJj/HhR9BUYy09J9T2OilbGfVXFvUxyztfGM+ecTkbu4u+3z2yU7R6VFKiv61t23HVt5VQRjjhcknEOtsiIhwiIgIiICIiAiIgIiICIiAiIgIiICIiAiIgIiIHJ+kbQW7QWVSmg3VUIdBwySvBlBPUqWHxInDUfSNqOiALdWe4LgbmWpSJx4uQysfMCbLEDKaPpooY79s4bqFdGH1bb+kVvTNQPuW9TPm9P8AoTNQa2RuaqfwiEoKnJVHwAgYlq3am77Z02t6VkxWoV7wLue6wZTv2qicVHPhNf7OWTadaW1FyC9KjTQ45ZRApweo4S0iAiIgIiICIiAiIgIiICIiAiIgIiICIiAiIgIiICIiAiIgIiICIiAiIgIiICIiAiIgIiICIiAiIgIiICIiAiIgIiICIiAiIgIiICIiAiIgIiICIiAiIgIiICIiB//Z;" parent="1" vertex="1">
          <mxGeometry x="340" y="115" width="70" height="70" as="geometry" />
        </mxCell>
        <mxCell id="mN7ZcCOHAyqgkuWttd1r-9" value="" style="rounded=1;whiteSpace=wrap;html=1;" parent="1" vertex="1">
          <mxGeometry x="756.5" y="150" width="120" height="60" as="geometry" />
        </mxCell>
        <mxCell id="mN7ZcCOHAyqgkuWttd1r-10" value="" style="rounded=1;whiteSpace=wrap;html=1;" parent="1" vertex="1">
          <mxGeometry x="766.5" y="160" width="120" height="60" as="geometry" />
        </mxCell>
        <mxCell id="mN7ZcCOHAyqgkuWttd1r-11" value="" style="rounded=1;whiteSpace=wrap;html=1;" parent="1" vertex="1">
          <mxGeometry x="776.5" y="170" width="120" height="60" as="geometry" />
        </mxCell>
        <mxCell id="mN7ZcCOHAyqgkuWttd1r-12" value="Development" style="text;html=1;strokeColor=none;fillColor=none;align=left;verticalAlign=middle;whiteSpace=wrap;rounded=0;" parent="1" vertex="1">
          <mxGeometry x="786.5" y="170" width="80" height="20" as="geometry" />
        </mxCell>
        <mxCell id="mN7ZcCOHAyqgkuWttd1r-13" value="datahub-1.0.1.g1234" style="text;html=1;strokeColor=none;fillColor=none;align=center;verticalAlign=middle;whiteSpace=wrap;rounded=0;" parent="1" vertex="1">
          <mxGeometry x="776.5" y="200" width="120" height="20" as="geometry" />
        </mxCell>
        <mxCell id="mN7ZcCOHAyqgkuWttd1r-14" value="" style="endArrow=classic;html=1;entryX=0;entryY=0;entryDx=0;entryDy=0;" parent="1" target="mN7ZcCOHAyqgkuWttd1r-9" edge="1">
          <mxGeometry width="50" height="50" relative="1" as="geometry">
            <mxPoint x="410" y="150" as="sourcePoint" />
            <mxPoint x="570" y="150" as="targetPoint" />
          </mxGeometry>
        </mxCell>
        <mxCell id="mN7ZcCOHAyqgkuWttd1r-15" value="Deploy helm chart" style="text;html=1;strokeColor=none;fillColor=none;align=center;verticalAlign=middle;whiteSpace=wrap;rounded=0;" parent="1" vertex="1">
          <mxGeometry x="400" y="120" width="140" height="20" as="geometry" />
        </mxCell>
        <mxCell id="mN7ZcCOHAyqgkuWttd1r-16" value="" style="endArrow=classic;html=1;edgeStyle=elbowEdgeStyle;entryX=0.5;entryY=0;entryDx=0;entryDy=0;" parent="1" target="mN7ZcCOHAyqgkuWttd1r-4" edge="1">
          <mxGeometry width="50" height="50" relative="1" as="geometry">
            <mxPoint x="390" y="170" as="sourcePoint" />
            <mxPoint x="590" y="185" as="targetPoint" />
            <Array as="points">
              <mxPoint x="585" y="185" />
            </Array>
          </mxGeometry>
        </mxCell>
        <mxCell id="mN7ZcCOHAyqgkuWttd1r-19" value="Publish chart" style="text;html=1;strokeColor=none;fillColor=none;align=center;verticalAlign=middle;whiteSpace=wrap;rounded=0;" parent="1" vertex="1">
          <mxGeometry x="430" y="173" width="90" height="20" as="geometry" />
        </mxCell>
        <mxCell id="mN7ZcCOHAyqgkuWttd1r-20" value="" style="endArrow=classic;html=1;edgeStyle=orthogonalEdgeStyle;" parent="1" source="mN7ZcCOHAyqgkuWttd1r-8" edge="1">
          <mxGeometry width="50" height="50" relative="1" as="geometry">
            <mxPoint x="560" y="570" as="sourcePoint" />
            <mxPoint x="440" y="260" as="targetPoint" />
            <Array as="points">
              <mxPoint x="375" y="260" />
              <mxPoint x="440" y="260" />
            </Array>
          </mxGeometry>
        </mxCell>
        <mxCell id="mN7ZcCOHAyqgkuWttd1r-22" value="Push&lt;br&gt;Image" style="text;html=1;strokeColor=none;fillColor=none;align=center;verticalAlign=middle;whiteSpace=wrap;rounded=0;rotation=0;" parent="1" vertex="1">
          <mxGeometry x="382" y="210" width="40" height="20" as="geometry" />
        </mxCell>
        <mxCell id="mN7ZcCOHAyqgkuWttd1r-23" value="registry&lt;br&gt;&amp;lt;test&amp;gt;" style="text;html=1;strokeColor=none;fillColor=none;align=center;verticalAlign=middle;whiteSpace=wrap;rounded=0;" parent="1" vertex="1">
          <mxGeometry x="453.68" y="284" width="40" height="20" as="geometry" />
        </mxCell>
        <mxCell id="mN7ZcCOHAyqgkuWttd1r-25" value="Reviewer" style="shape=umlActor;verticalLabelPosition=bottom;verticalAlign=top;html=1;outlineConnect=0;" parent="1" vertex="1">
          <mxGeometry x="50" y="290" width="30" height="60" as="geometry" />
        </mxCell>
        <mxCell id="mN7ZcCOHAyqgkuWttd1r-26" value="" style="shape=image;imageAspect=0;aspect=fixed;verticalLabelPosition=bottom;verticalAlign=top;image=data:image/jpeg,/9j/4AAQSkZJRgABAQAAAQABAAD/2wCEAAoHCBYIFRUWFhYZGBUYGhocHBwcGhoeGB8jHBgcIxkZGRYcIy4oHB4sIRkcJzgsLC8xNTY2HCQ7QDszPy40NTEBDAwMEA8QHxISHzYsJCg2ND8xNDQ0NDQ0MTY0MTg0ND80NDQ0NDQ0NDQ2NDU0NDU0NDQ1MTQ0NDE0NDo0NDQ0Nf/AABEIAOEA4QMBIgACEQEDEQH/xAAcAAEAAwEBAQEBAAAAAAAAAAAABAUHBgIDCAH/xABEEAACAQMCAwQHBQUGBAcAAAABAgADBBEFEiExQQYiUWEHExQycYGRQlKCobEVI3KSwSRiotHh8BZDssIzNGNzg6Oz/8QAGgEBAAMBAQEAAAAAAAAAAAAAAAIDBAEFBv/EACcRAQACAgEDBAICAwAAAAAAAAABAgMRIQQSMQUiQVFhsXGhEyOB/9oADAMBAAIRAxEAPwDZoiICIiAiIgIiICIiAiIgIiICIiAiIgIiICIiAiIgIiICIiAiIgIiICIiAiIgIiICIiAiJGvLxLFC9R1RFGSzMFUfEmBIiZprfpbt7Ylbam1dh9pu5T+WRub+UDznM0O2WsdpXK23dAPH1VNAq+TVKu4A/MGHdNxiY8ND16rxN4AfA1mB+iJifx17Q6X3hUNZRzCmi4+jKHPy4yO4+3e2WxxMh070rVrJhTvrbBHMoGSoOPM0ah4jzDDymm6PrFHWqYq0HDofDmD4Mp4qfIySKxiIgIiICIiAiIgIiICIiAiIgIiICIiAiIgIic5207Qr2ctqj7lFYqRSViMsx4AhebBcgnyECv7V9tl0hxbW6G5vG4CmvupkZBqEeXHHhxJUcZxOtWwH7/Vbhq9QcVtqZ20kzyHDqc44cTniWHGVvZ3W10+k4tqVa5vqvGrVCFtu45Kg8ST1JxgnJ6AS+7C2P7WuKtSuhVrZlApvxYO4J9Y4PUD3fMk+E5M6jaURuUjSuyR1sI9zSS2t1O6na01CseHvV6gG7J+6CPPHKdxb00skVKaKiKMKqgKo+AE91H3fCV2qarQ0hQ1eqlMN7oY95sc9qDifkJmtabStisQsTUJnnefGQdM1Ojqyb6NRXTOCRngcZwynipwRwI6yZIztPhH1GwpaomysiVE8GUHHmp5qfMYMzjVNJuOwFUXdmxa3JAdGJIAzwR/vJk8G5qT58dPlH2p7R22goFro1Q1QwFNQCWUcGLbiAF444yVLWieEbVjXLoOzOv0u0lBa1I+TKfeRhzVvrwPUEGXU/PHY/tJT7P3++kXW0qsFdXxuVSe6WIJBKEk557d3Uz9DzUzkREBERAREQEREBERAREQEREBERAREQP5MEx/xvfXFxXZha0fA8dm4ilTTwLbSSeeSeWQRqvbTtRR7N0SXO6q6sKdMe8xxjcfBRnifkMnAmQ9lX9XZsg+1ccfMJSTH5uYdh0dTWHRdlBRQoj3UQAH4s3Mmff0dFnub9yScigpJOSTh85J64lJOp9G9DbQr1OtS4f6JhQPqrfWQyTqqVI3Z0+oXq6dSq1mGVpo7keO1ScflON0Hsl+1/wC2ahmpXq4YISQiKfcUqOPI+6eA8CcmdyyhwQQCDwIPI+RE/szRaYjhdNdzyh6bpVHSgwo01phyCwUYBIGAfpJkj6qtRKFR6XGqqF0X7xXvbPxY2/OLC8TUaaVUO5HUMp8iOR8xyPwiYnzLsTHhInnYN27A3YxnHHGc4z4cZB1HUxYVLZGHdruybs42tsLIMddxUj44lio3Rocd277KU9Vo1KqIFuEUtlQBvCjLK4HvZGcHmDjpkHr+xN+dUsbWoxyxpqGPiy91j9VMq2uzRvGtnPcq0g9PPUr3a1MfLa34mkT0P3ANh6rcC9GrUVhnioLFhkdAcnHz8JfimdalTfXmHfRES1WREQEREBERAREQEREBERAREQP5KXtV2gp9m7dqz8TyRc8XY+6o8upPQAmXJOJgfabVz2yvWIJ9lo5VB0Izxf4uRn+EDwnLWisblZix2yXilfMq6pVfV3qXt0dxPEL0IHuqq9EHIDrzOeJP27K6Bd6zSbY60bYOWaoxwC20KdhAy2MAHiB554T12gOKDBeQ2/kw4Ts9Z01LjR7ZVGQKNHYMnbvqbF9Y6j3iC7HjwyxlNLzMb+5betwVwzXFX4jcz9zLldb0i57KbHqOte3c43rngeeDniDgEjiQcHlOy9HVcGjWp9adZyPNagDqfqzD5SEnY5rYVbEVHa0rUw6OwDerq06ibsAYADBgccOR8CTedluzKdm1qbXd2qFdxbAHdBwAo5czzJi9omNMlazE7X8REpWuR1fXNS06s6pZitQyNjIWzjA97BODnP2RHYOxubX2l66epSq+9KOfcJLGowXJ2A5XhnoeAnXRJd3GtI9vO1R2p0j9t2z01O2oCHpty2upyhz08M+BlToWtVe0VtVpK/qL6mNj5UHawOA+0g91sEHgcHPkT1xXbOK7Z6Q9m37Rtjsr0hmov2aiAd7cOpCjj4gDqqxXniXLfbzpXZS8q16Ne9u95otuREzzPPL7VwDyIC8RwzOB07Uq/Z25e5oHgtWojr9l13nuv5HoehwfjsPZ/WF1m2S4ClAwbKnjgoSGweoypwfDwmSaQPaKOWGQ7OxH8TGS75rzK/p+njNbt/Ey3jQdYp69QSvSPdYcQfeUj3kYdCDwlnMK7Aa2ey956h2/s9wVGTyVjwR/Lj3G8sE8Fm6TRExMbhivSaWms+YeoiJ1EiIgIiICIiAiIgIiICIiBxHpU1s6RZMqHFS4Pq18QpGajeXdBGehYTM9JtfYqSj7bd4/PkPkMCW/pRuv2nqdKhzSiigj+83ff6oEEh1GyZl6i3ir2/ScUc5Z/iHwuKXtCMn3gR/kZfej7XkuaXsFwQroSqbjgOuc7AfvqeQ8MY5GUsg6hpiXvH3W8fH4jrKsdoj2z4aut6WcsRavmP7hr+o6pR03Z611QuwVAfeZiQAFUcTxI48hJh4TIvR3aJU1HZW77pTZkLEkblKlTg9QrMR4c5r7jBMstWI8PD53MT8PMTwKilimRuADEdcEkA/DKn6T3IpEr9erVLe2rtRGaq03ZQBk5CkjC9T5Txr96lrtSop9nqEo9VX2+rLDuFiOKgtwDA904nM32l6tpxJtrr2in0WoKfrPIbmXDfHcJKtUZlNX0h2ddQVNV3I/8NaTs+ce6OGPzkeu1/2qVk9V7HauCGaoN1w6nmAnDZkZBz9TIGn6hrQq01qUAELoHISn7u4bzuV/DPKeLvQtV1+rUStWNK23uB3kGU3nbhKfFu7j3yJZqI+kdzK51C/oaRptdLdw60KfqQwIPfcbQCyjBfLZOOWek4ewp+ppovgo/TjLTtstOyW102gMIhFRx1PPbvPUnLsfw+UhynJPER9vW9MpzNv+K3XLX2imW6px+X2h/X5TZfR9rZ16ypOxzVT93U8dyY4nzZSrfimVkbuEuvQ3em0ubq1J4Mu9R5o21j8SrL/LLentuJhT6rh1aMkfPEtiiImh5BERAREQEREBERAREQERED8+XVf23U76r4PUUfhcIPySSJWaYc17s9TUb86j5lnMOaffL6b06NdPH52REiXl+ln7xy33Rz/0+criJmdQ2XyVx13adQ8NcHRrm3u15I67x4qch+HXKFh8cTbmcVQrKcqwBBHIgjII+UwCoK+r8l2pzGeAPhx5t+k7XsF2zSwQWl22zZwR290L0pufs46HljA4YGdk47RSNvmc+bHfNM08T+3V9o7WqNlzbjdXoZ7ucCojY30vidoZT4qPGWGk6lT1aktWmcq3MHgyke8jr0YHgRJFGslwMo6uvQqwYfUTi+0zpoFdq9tcUadw2DWt3cBKo+9t+w/g3DPjzzXEb4Qmdcu0uKCXSOjqGRwVZTyIIwQZwdXsvqWkHbZXmaOe6lRssg6KAyspHmMfCWmjdv7TUQA7eofqrnuZ/u1R3SPjg+UvKmuW1NdzXNEL4+sT/OI7q8acnVnL21lrbkB7mgi9W2IzfICmAfqJ0WraovZ22NSsxdkULkhVao+OACqABk+AwBk9JQaz6R7ayBFENXfpjK0x8XYcR/CD8pnWoa4+v1g9y52D3UUYRfIDp5scn+k60m08xpG1orHHKVpdY6g9a4dt1V3JbyzjgB0HIDyUCWcoL20bTW9ZSPc69ceR8VlpYX63o4cGHNf6jxErz4rVncvZ9N6vHakY44mP7S5/Oylb2LWLYg4DkqfMNTZQP5gp+U/siWR26lYn/wBWiP8A7f8AWRwT7lnqld4d/Uv0NERNr5wiIgIiICIiAiIgIiICIiB+c6KG2u71DzFWoP5arAfkRJ9SoKQLMcAczPfbG2/Zur1x0q4Zfg6DP+NGEg6xTNSi+OmG+hyfymPLX/ZG/l9B0OWY6WZrzMbQK+qPdnZRU5P2uvxH3R5mSrHSFod9zvfnx90fXmfMz+6CVal3QAwJDeZ6E/IzxUqM/M/7+E9DFirSu4fPdT1WXNee6U6pdqnLify+sqb2n7UwfgHGMcAQcHgGB5ifWJbbnyy19s7he2WqaXW/85Yeoc86lBnFI+YRGBT4AH4yl02ypXau7KWD1H27mYkKD3RuJySBwyePCeCMyRo5CoydUqN9GwRMfU1mtdw9j0ua3zatETxPlHudAR+NNip+63Efzcx+c9aeKFuypcWDPU6MlZ0DY6lMlT0yQwHHlLWV9O1qXtx/ZabVaiKd4D90A8Bl2bA454A9PIzPjva3Hl6PWdLgpEX8c86+v4eKvq9XqECnTtaSNgU0A9Y3m9Q95j+X6mTc2aGm6KijgcHHHIHA555n1u9Gu9AZqtWiXWpjLUe+EwDwfhkcOvLhzkR9UXYX2VApHBih2nw7/LnO3i/dwj02Tpa45iZjc73vz+EfS7oqi54rjGPyketRW3r0jTOAxHDw494fDGZ7s12Ig8v1nuwT11dm6IuPmf8AZm3NOsfLxekpNupiK/a6kfR09o1WyXwdD/IWc/kskSX6NbX9oaq1TGVoJUbPTJUU1HzDMflMGCPdt7/qltYYj7luERE2PniIiAiIgIiICIiAiIgIiIGU+mjSyot7xBxpn1bnyJ3UyT4Btw+LzlqNQXCBhyYZ+vSbZrulJrVCrbv7tRSM9QeasPNWAI+EwPTg+nVKltVG2pTZhjpke8B5H3h4g5lGeu43Hw9P03NFbzjt4lH0gm0rvTPI5x8uKn+UmSbhdjsPP9Z8dXX2erSqeYB+R/yJ+kl364b4ia8Fu6m3mdbi/wAWeYRp4qOKYJPIT3PjdLvQj4f9Qlk+GWPL7sNvAz4rXNk5cKWVlwQOeQe6fpkSdfjD/ISHVBZSBwOOE5esWiaysw5bY7RevmFhpNtW18t/yqKnDMOLk9VUnr4nHDzlnd2v/CdSjdW4IRMJWTJO5GPFjnr/AF2+cruz/aZdMRaNZCqrnDqM8ySSy9efMZ+E69XpavTYKyujqVO055jB+BkKY6RXUeU83UZsl+687h0949JEu63tJf19qaiUWddqolIgvSTmAcjJ8ZxdpWTTrGk1Qd1aKAg9SUA24PMknHznx0W6RNPv6FVEN1a0qlujkDfsrZVFVuYG58AeGPGU2v3vtLrRQ/u6OAfBnAx8wo4fEnwinG0cnOlPSX1KkkAc2IHIZ47R5DlJmiU9qFzzdi3y6f785AviXCovvOQJdF0tFALBQAAMnHKZ+qtxFYet6RjjunLbxD+Xtf2ZGfwHD49B9Z3PoZ0k21tUuGHervhT12U8gH5uX+WJmlc/tuvQtkZVV3VSxOFBY4zk+AycdTgDjP0VYWa6fTSkgwlNVVR5KMD9JHDTtrufk9RzxkydtZ4j9pUREuecREQEREBERAREQEREBERA/kzL0rdlWugL6gD62mB60LzZF5OB1Zeviv8ACBNNiHYnXMPzPfXS6hb7vtIylh8eGR5HMn1n9alNvFR+YE6D0jdhDphe6th+4OTUpj/l9SyjrTzxI+z8Pd5q2bfb0z4cPpkf0ksMa3EHWZpyzW0+fE/l4kG4u9m5SOORgjljI5+BxJ3A8xkdQZ87mjTKOBTCttbBBPA44H6y20TrhmrMb5er7UabNkNkY8DIqaitU4QM58FGT9AZuvZns/ZG3t6qWtAF6VN93q0Ld5Ac7iCes6WnTFMYAAHgAAPoJXN5lbGOsPzY1KrVGPZa7D/2nP6LIvstezbelG4pEddlRfz2jhP1BE5NpdisR4fletqdS4cuz5chVZhgE7GBXcBwJBVT+ET7W90zbURCzHgFAZmJ8gBknmZoXpHC0by2cj3kqgnHE7WXH/WZy1peihf2VUcAKtME+RcAn6OZ2N9u9kzEzqYV1jp11qdwtJKbCvjgrAoUHVmDe6O9z8xjpO4tfRrRsCr6jeKGYgLTRsFz90O/ec+SqDOn7T0RYarptwBj1oqUHPjhd1PPzJ+glpfaV7HXNeibZK1T3qlwKlSof7lM712L/dU48pD52nuddvwqe0Ho7s7+2It6K0qwQmmwDKSQOC1A3Fg3IlgSM5kr0W622tWKhyTVoMabFs7iAAUY54k7SASeZVp1Njv2A1HR2PVFKr8gWb9ZmvYNjpesahbD3KgaoB0GHVkwP4axHyEONViIgIiICIiAiIgIiICIiAiIgIiIFL2wT1tjeL429X/82mC2DZt0/ib9T/nP0ZeW63lN6be66sh8cMpBx8jMO1r0b3ui5aj/AGimPucKmPFqR978JY+Qkq27ZRtXujSmn8YZEhU7/BKuCrA4PA8D4FTxBkxKgfkQfgZbFolR2zXy2r0a3XtWm2p6ohpn/wCN2T9FB+c6qZ56HbnfbV6XWlXbH8LqrD/FumhyhpIiIGQ+lRP3lo3nXX6hD/2zPNVY0wjL7ykkfEYI/MTTfSrQeqttsUu/tDKqjmSyPwH8sz5tFuru5pWj0wleoNyqxAGMMdzMpbAwjefDlJRaO3SM1nuiWj9v9ep50196Arc06jDcC4QodzFRxCjcOnhJt32x026YF3o1W5DNBnY+Q7plloPYGy0qkivb0qlUKu93TfubA3sofO0E5wBifLUfR/Qr1fXUKtW0qFQpFAoiHHXbt4H4EDhIppelX9AI70aa0kwdzepaiOXFjvVcgePKc16PwNa1K/vlH7oKtFG6NwTJH4aan4OJNrejT23hcX93VT7pcAH4ggj8p2GkaVS0WktGioSmvTiSSebMTxJJ6mBYxEQ4REQEREBERAREQEREBERAREQERECh17spadoONeiC/IOuVqD8a4JHkcjynE3fodpsSaV06jwdFcj5qUmqRAyb0b0D2d1O9sXYtlFKtjAbZgqQuTgla2fwmazMy7dL+w9U06+5I59U56dVyfwVGP4JpsBERA4XtqNlSyPhe0v8SuP6yn7VsNO1LS7k8BvNJj/HhR9BUYy09J9T2OilbGfVXFvUxyztfGM+ecTkbu4u+3z2yU7R6VFKiv61t23HVt5VQRjjhcknEOtsiIhwiIgIiICIiAiIgIiICIiAiIgIiICIiAiIgIiIHJ+kbQW7QWVSmg3VUIdBwySvBlBPUqWHxInDUfSNqOiALdWe4LgbmWpSJx4uQysfMCbLEDKaPpooY79s4bqFdGH1bb+kVvTNQPuW9TPm9P8AoTNQa2RuaqfwiEoKnJVHwAgYlq3am77Z02t6VkxWoV7wLue6wZTv2qicVHPhNf7OWTadaW1FyC9KjTQ45ZRApweo4S0iAiIgIiICIiAiIgIiICIiAiIgIiICIiAiIgIiICIiAiIgIiICIiAiIgIiICIiAiIgIiICIiAiIgIiICIiAiIgIiICIiAiIgIiICIiAiIgIiICIiAiIgIiICIiB//Z;" parent="1" vertex="1">
          <mxGeometry x="340" y="379" width="70" height="70" as="geometry" />
        </mxCell>
        <mxCell id="mN7ZcCOHAyqgkuWttd1r-27" value="" style="endArrow=classic;html=1;edgeStyle=orthogonalEdgeStyle;entryX=0;entryY=0.75;entryDx=0;entryDy=0;exitX=0.5;exitY=0;exitDx=0;exitDy=0;" parent="1" source="mN7ZcCOHAyqgkuWttd1r-26" target="mN7ZcCOHAyqgkuWttd1r-5" edge="1">
          <mxGeometry width="50" height="50" relative="1" as="geometry">
            <mxPoint x="380" y="379" as="sourcePoint" />
            <mxPoint x="365" y="270" as="targetPoint" />
            <Array as="points">
              <mxPoint x="375" y="275" />
            </Array>
          </mxGeometry>
        </mxCell>
        <mxCell id="mN7ZcCOHAyqgkuWttd1r-28" value="Push&lt;br&gt;Image" style="text;html=1;strokeColor=none;fillColor=none;align=center;verticalAlign=middle;whiteSpace=wrap;rounded=0;rotation=0;" parent="1" vertex="1">
          <mxGeometry x="382" y="320" width="40" height="20" as="geometry" />
        </mxCell>
        <mxCell id="mN7ZcCOHAyqgkuWttd1r-29" value="" style="endArrow=classic;html=1;exitX=0.75;exitY=0;exitDx=0;exitDy=0;" parent="1" source="mN7ZcCOHAyqgkuWttd1r-26" edge="1">
          <mxGeometry width="50" height="50" relative="1" as="geometry">
            <mxPoint x="560" y="560" as="sourcePoint" />
            <mxPoint x="585" y="310" as="targetPoint" />
            <Array as="points">
              <mxPoint x="585" y="379" />
            </Array>
          </mxGeometry>
        </mxCell>
        <mxCell id="mN7ZcCOHAyqgkuWttd1r-30" value="Publish chart" style="text;html=1;strokeColor=none;fillColor=none;align=center;verticalAlign=middle;whiteSpace=wrap;rounded=0;" parent="1" vertex="1">
          <mxGeometry x="440" y="354" width="90" height="20" as="geometry" />
        </mxCell>
        <mxCell id="mN7ZcCOHAyqgkuWttd1r-31" value="" style="rounded=1;whiteSpace=wrap;html=1;" parent="1" vertex="1">
          <mxGeometry x="766.5" y="384" width="120" height="60" as="geometry" />
        </mxCell>
        <mxCell id="mN7ZcCOHAyqgkuWttd1r-32" value="Staging" style="text;html=1;strokeColor=none;fillColor=none;align=center;verticalAlign=middle;whiteSpace=wrap;rounded=0;" parent="1" vertex="1">
          <mxGeometry x="776.5" y="384" width="43.5" height="20" as="geometry" />
        </mxCell>
        <mxCell id="mN7ZcCOHAyqgkuWttd1r-33" value="&lt;font style=&quot;font-size: 12px&quot;&gt;datahub-1.0.2&lt;/font&gt;" style="text;html=1;strokeColor=none;fillColor=none;align=center;verticalAlign=middle;whiteSpace=wrap;rounded=0;" parent="1" vertex="1">
          <mxGeometry x="766.5" y="414" width="120" height="20" as="geometry" />
        </mxCell>
        <mxCell id="mN7ZcCOHAyqgkuWttd1r-35" value="&lt;font style=&quot;font-size: 10px&quot;&gt;Merge&lt;br&gt;&amp;nbsp; Request&lt;/font&gt;" style="rounded=0;whiteSpace=wrap;html=1;" parent="1" vertex="1">
          <mxGeometry x="123" y="337" width="73.5" height="33" as="geometry" />
        </mxCell>
        <mxCell id="mN7ZcCOHAyqgkuWttd1r-36" value="" style="endArrow=classic;html=1;exitX=0.5;exitY=0.5;exitDx=0;exitDy=0;exitPerimeter=0;entryX=0.5;entryY=0;entryDx=0;entryDy=0;" parent="1" source="mN7ZcCOHAyqgkuWttd1r-25" target="mN7ZcCOHAyqgkuWttd1r-35" edge="1">
          <mxGeometry width="50" height="50" relative="1" as="geometry">
            <mxPoint x="560" y="496" as="sourcePoint" />
            <mxPoint x="610" y="446" as="targetPoint" />
            <Array as="points">
              <mxPoint x="160" y="320" />
            </Array>
          </mxGeometry>
        </mxCell>
        <mxCell id="mN7ZcCOHAyqgkuWttd1r-37" value="" style="shape=image;imageAspect=0;aspect=fixed;verticalLabelPosition=bottom;verticalAlign=top;image=data:image/png,iVBORw0KGgoAAAANSUhEUgAAAOEAAADhCAMAAAAJbSJIAAAA/1BMVEX////pOCfpNyfx7ey0VEu5ravrNybcKxbsNCLsNyX4+fn7/f309fXpNCHvNiTh3t7Z09LiNSPeNiXd2tq1XlXFNyfBsK7l6OnRQzfJT0XyNiS+nJrp5ubKST7tMR3Z0M/BfHbVNyevbGWqkpDzLhagXli3dG/SPjG4bWfJxMS2trbJUUfbMR/HRDi3e3XLtLKmmJiySkPNvr3ZOiqnTUK/amOnVErJY1vFqafLLxyhd3W7OCmpYlu6j4y+gHurlZK8Tka8YVnXwL66ko6kamS2pKSyQDKpiIW2WVPDaGC6KBTGjIijVk3kFADYSj6bbWmtfHm3OzDFmJShg4DRGwC+kv3EAAASkUlEQVR4nO1dC1vUOhNmAyfbstvuDQQXKCIoIItyEQWPChzFc9Hv+1DP//8tX6/JzGQSurBXnx19oO1227yZybwzk7TMzc1kJjOZyUxmMpOZzGQmM5nJTGYyk5n0JYvN7TfLvd7F8buT+rjbMgxZbN7+HnV93w/D6OL9yeK42zNwqZ9fBaGsZOJHyx/Wx92iAcv82qpXKUSIit/+2Bh3mwYq9bXVIEWWA0wgPumMu1UDlPraLtBgbqntJ7+OFmtru0EFisggPv9lIF5ueVp3WvzW05VxN20wctTzKbhMZPDsVyDG2nY1BLaJNbnzbPq1WF879SvCNNFCi0+nfSxmXlTYdChka8rdTUz0AaM+oTemnBfrMJIB0CDoqeZFFMmkuIQQxEyFmGItxkTvFZCKkSiQiRaGurc/7rbeT/4svCiAl+9ilLK18du4G3sfOerBMQis07DUigyXX4y7uX3L4nYvFALAybQptFb1+Iw3usvTpsX6p9OQelGhAALMxW64+qg27kb3JY8ITVRygNjLwN3g8aupqmw0z1pSmDDIzwrQopw2iJ29ljThsQosJDiYMohPI0kxqCqGPgK2Ey1O1VhsLAUSY2OHIVRo8PjRuFvdlzS+RZIFYhfvcLpIo7GUQnSBo59NG/U3UndjQQjdqT5n0qm/TuoujbOWbzFSyiXFsfDw0QR71Pm1W1Ksj0mjKEOR3FBgYtTBjrcxuaQxv7ZbpcX6JuHFu0VOLi/W13aDsPeSVM86e5o0kGHaQ55JjW6SjF7GuR6F2Ngzqf8OmUzqX1zbTUec3zYgflOkQb0LigGE8qsy2JhA6t/e8or5CAPimwgYKudEKdhJpP6jql+0koG4VEAsF9rEEm5NFvUvXvaymkymxd5LQhoN7W6ESvBNTwOrVpNF/fW1rRAGKRxExYsMsooagaCGE1P/xLgbNAFa4bXYOTN40W6x2SfBxFB/XvhFzTYhNjMtSmlmjeCrWqHx0UnhxXwRAgnK/N5zSv1nrdDzglYr8EIcAzBBa/p/QqKbxVSDpu35VTO6ubg6+/j16/Prw17ko7Otk28TQP2L+Rw9qdVXWNL4o7k+Pz+/vr65tnThSS6/IAcmgfq3Tz3QOBS3mBCVPhbXzxdiAhXw/KyYqnxqfnTs1H/UU4Vf09JMiEAaL3uh8Q19KQVxvNSflO4NgACpX3XM8NYvs0CWrzPqre7W+LSYET1ma5EbXA6x99G+fq3+6dSZVxVeaHzUnxB9PhcBA5rCxFLAMS/atbjyMiZHBUcVU/M5Rx3CjSvrnwc0wVhX3r54LNq12HwcGhcgikxlPNSPIplcjVzE6RtZP5DtOOcwBrCZRI6F+ukiBOT4kYRVu6do/G7zp+RSo6f+2ie4GE+oUBLsK29z4Zil/xxxyocXzXdGTv2XW545KWGEKOl+99hhYDdVSU63STBa6j/i2ZoWP9Nf0WfHhZoXMEDlTT0/MMqC/2KyGE9gz0DbJtTSmehPx6XWv4SVnCLo1XKr0Es4Rkf9MdH7CAncgLleFgFEN45rzR93jSUMKGzIL5Juj4r6zYxet4eaVvLTiXD9uEtVR0yh+Hh01G9djMfFl+IuK218Nwe0AOQq1KFkayRz/XUVyRjrfogyigNOT7N5EWK9CaxDrFYxAogFQLquiZO8cd1jx1Lny4wtRJkLZlo8GO5YTBbjcbVdPgPK9kIX47/bkeo7aDERAzBT75Cpf3vLR3ELaZhuStae7KPop/2CzeOoOE3HDCo7YTpSiKFSv4XojX7H0MMNx/rRGCIzM2W12OSD4VE/zOi1svQmidt0PuzdOrxD56+84C+U4lSuCK8F0uJhFfzTVfewNw2lke5WRuY7V+U1r6UUFBLZIx8Mh/rr+fwgxWH5jSS42ne0aPPvlnllu52m1D8E0phnIxl6Z1sTg7eORyprm2dtn0dkpZDBQ6yTyjbCoANI3TLsYWXr6tye6deaX7csoQ0vYvDL/Or06bM7xFznHKx+dDz9u/KJemk3/8f9N9isfzExURiOES+afyLQMaF3kk2/teFg/vqHXqgyCnhJxviz/4Mt+Cel+7ujNKOfsfiwXjP/G6nApRANijf2AeDYLAZGGkc9X/C1FMB62Y6jHyRC+O0rsdkEItcxjj4bFPXXUqJnEOp5FL6TAccl3YARLlRviesBibXxFAqGqT4dDPXXbpIxaOlZdjjmP5HaBdXhQrS1RrS48rVteRTTSreha2yXBbh/Zcy/m9rUXkhXNfSB7CSC0PMeU45s6rl+8/khAS6qmiBbew99ZqoWBxywLG3GVdplQvtRxzV4ijCOdE5q9GZZAMdYjAAXFPoeD37yLQNYzo8SQ0K7HMI4YT84obe7Npb5oZ7Sg7/47IFPvsV3bEk2HLY6Tbb7UzF0WJHRYzqMmn9F0nIlLjivPPT5xQSgE4/5GRMAWBHG4eUVhdjJ80VVKDUHI+mBhzzX31wICoDg8pQOcCzDdoZgESZHgwNDi0nWnyy7kRXi4iylrwc819859uCgKDEYQVACXGq+z+nQArEbRdVqNYq69qwKXF7c97n+5vEOuG6J2hq6tdEk1kpjiR4TjzrXebb08+jFixdH7xZOfZ88W2QaUkK193quf3+BfUiZwwQ+Zn85EQrvgEJUK/5X9l9uVIzlDMzt7/Fcv/bbwj4A3JgpdnYcJq3zrux5VX3/DD/ISH1Nbqx9P9dfK7youpT1tQjFKebH5IhFh2mtfs2x7ubTlmfvNyWxR+2HF2tM6cShR2aH6Q4rwliLW7d2V1GsabH3XQ6xH15smotB+8sPmaTDgTCOoHsf7FqM8yrKG1yr/LZj7Q6R+ZcMQEq4KC7GRRrjeRg+LlWfxKeHpw6I63uBtk0wM0s63W9/Klu6eQRnQItGAECCqZXioAAGNsU/qw7Ts30HxNrJIVx3I9R/oYCn7QuXT2yXwFL/FlUwBDo5yFsssExMINmGjS3y/y6I8x8DGK0qVLQF0edySnxxYU1EKQane8s/Kg4buQW5mnfQtDbpj9UQXY5+N7ezcLlcQvwZFg4F3uBCX2w6+HOwQo3RIcwFZeuj3Z82/vbw3ZET0CPHOd+s5R8JDcDwMDbhToKG5PCl2UA8t9c/61+pO6X3zLa630oh/A9ZSOJuODyRPd1mpeBSKcL/OtzE4vmpJAPDuF+yE/5eDiEPi2u1dqx6eIgKoZb8BDNqEyDbEoGRDQOpvdr1i4WZAnayHhyZR+6VQ+jwGyzM4pbI8aCGsAjxCYHD0czNvVr1BRq2AibI6n7hRSmE/2CTLzsQxR0bJkJkdk4dzr3a9elFud3wSymE/wukAYn6SQdA5ojNl8LPneOwdn7Kehra/c6VLVr2eT4s5VArSjN40YETYXqCv3tub1L9R5usYaTzd/ktLkshrL+P2EbTTfNzwlIVvWBbOBBmbZVtOpMBJOfDiu48XWnWLkd0v5RML06WmflK4wjTAU418zGNluCt3dVsboQlbEhWP5QDGKcrbfxYUj9IKWorQtwnIjFTG+XXf/Qk04ck35HeX6UzRPg8pNF6BrW2F4GPQpy2KoY6JTizNXDzynw9qAD3S28lgw1a8HGIToGNy5Id8EPgcyhpcOMQMahvzEYVJxephaCdAje9jfM+ZvZrm9kLLcxpktJVxXzw6x6wZ8CFBEZhMWtMNrEoKpbGZIeDjfO+iqa15hnoN0H1gfcgFDjRhs+15xbqf/CWY/2bVQ/cqGgUGZHBYX8AY2kueeiqhu5KKlOdxlopOTkw5jHmar/tepYOBofC3Zv+F5903uxUKiq0phaCXYrqY2GcpKZYnDl+3osy3DrCqli5bSOiyM9VbjT7enfLtdTaKiuv8TMVtCeNWQpoO+bGHTFNfsGw+vpmvRiNi43LL8nztMQdKJTFMe++q/g7S4FfAfph2669Ic2Z1M/suMH4Ammj+KLs9o5vz/ebjc2T88/fq10J8esyHryXt3ovDSaSkobSDkZEkSCHBDpEHXBnT6AfZRj1lr9/+b5cjUJJFYiMOvtCcHhvgCnEbGKEDXQBwJwRXXzFZE/aNxIalX7YDX1NycSXol7pjwep1BKIpSiQoRHyNXvkzXQHvTo8is8IHgQwgygtS50E/slNd8OW23xpoX9736BrwyAiMdE+iZ6R5pmwJJ8cbILrboQ8IouYt/QOH6bBDOIS49hJs9xNtI3DPrBZbuSv3oPoTem83jHgEGI3iYT4BoYtzDYL7ILBfcyOSM/tXjzAi0JJqF/gO8JxYeJWgRAMCvj8sIiYdOdgr6KvAOoF+Snh4B7XS54Y6NeeDO/KWykimAID7DHGf+U9FuwOSIOJcFOm4KbAXcBpOBwiMBVhru1kpHMmkp3uHd4M8pEEAyJvpkwsoyT8FyE0nsTnvydMY8gkGIQXBZKkxPwrHmyIoAIq6Vz9Nag0zb+v4lUkdw0CShQD4EEXRGc74ABSzZLBwVoH9PniyfOtsmvHgf9Sx7z+E967IWZZv8nmGI3BHOlv2TvbxC2qra8dovIS/0YG6GPBB8MAOGen/rtFtpjFLvXzVYYTjTtwdnyvjL6MpNQv6O1IlxcuFfZ+cM2t5qndnOYVJlgLMmNSsJWR58CI3pSV1/bXWGJmRp7BM9Yf5hD/lBJ/C/USRqgrJOHFEB+x7MA3WDsFNFK2bV2+shCCOpD1AmhPPCCjLwUx86i0PYimqSF3F6zLSH6roiJF+gu5FEzylfQBqqECZKMbOz1mfjSyT3mtfOlS3RmCL//QhLeEbBaFDUdjkNcJlx2LBt/RiTzbxQqAw6EJJJr6DW2pLZiBiO4bR/j4qHrHKhJwTAwjkmEloX4SCAtBN4rPhYzeOa7VWQ7Jt6wBakL0qyMBmHjUvCQvtEEySsgPRtuOS60fh/BL4GoMznAwGX0piDH1k4UelmEZO7+73t5i9Awl+SJFDrcGmi65ZeVNpN18bkNCRTJ4it3hSjOEMKNUEVFFXa/oyAFm9GWksRTQx6/hZJ62M+F8aUT29hZhN0x9zBtkRl9GMl50eAi1Fz1zXGbTvtITGawMBpvRl5G04O/IMJQRd784nva45NnCQOhtOFYuDklq+d8E0ENONQmnCbJnf1q3li/dESYmZBMj4kHautxQ73itTGymt9buby6HXOlc91W6KccDcC6jfuU/YZuE9qjxfrhqW5NX+xnpl35oNwrnW5OtkRG9KZ0lzWYCrI4kSYH/0tLA/V3PqBaa0VG4O8a/WpJSP2wftdW0nf4p7wcb1x6N2Ki5inSOfpzvg1553bX+TQB9xGNfUNN4GpjfNYgxvBjznxBQWT9lwyLUseYEnect+s5ERp1DzujLSJL1M4MPVJfSrGD3RwOpsX5yDf7Gjg4+VV/la9VWR8+DhuRz/bbwO8cZtv9+1annra2tbH7dKDPZM4KMvoygVyFgUwUiva23P15tNjud5sn5k42WsfqyYnodb1w8SKQGChvIjwIVJuIH7dWDt7Fs7LbSd85zflSRR2zmYyN6Q2oF9TNtRail7wWxeJJO8rCUMYqaTGlpLumKEkyM0V8DZrWFiELArXB3IsZgIY03O3mMhlgCjLOiJJ/vgTlrpWqt0PjjMRO9KWiZX2mxKVcMt3R/P+m8T7J+znUIbbM5KFKRM1euDbt0fz/pnLXoC9YJRyIUoPiPTbmSvuRqAojelKYJkQWKk2a6+jKRCSF6UwpeJApD1gg0haxT15THmPDeKXiuX5gWywjiDFFocEIBziWGKiUDR5DfaJNCnyiiN0VTP1WcLcxGqy+Tmsew5ugHJXqZH6UFB/kBIx3iHP2gpD/qp6hHXLq/n2RZPxxnkC0MRaID/qhL9/eTnBcFcZQQrqZJNf6SX95DVt2PUpg5DZvSdDEx3vAHvBhveJLzopHwi+KpBsFinWgeJFJD0Q2vwsKCi305KSWLcqIf7oOoBPhhZPVDWow3PMmW+TmSe/LhxBO9KdnDfRVjzJGwO/8/cRl9GaEP99EtoEI5gRl9GUmoX5O9tXIohKxMCw9S6Zy1mOf6dUaYI/Rb15P195v7kOaZ/d3HSvz2nuu9LRMuzSdt8NYVxrOKWIN7zelzMlo6CKJZskne5jzFGkyk8bxYyYhS4gKpDKYdIJzpBUAVyuD9Q9/HPQGy8m3H+n6gnTcPexv3hMjKs+ThPsbNSO/bPV9xPGmy8rSYJRawLCODpV9Cg4k0nrd9NHmR5rsPfyf+BEkCMUOo1p7+WgAzXixeZFoAnGqiN6XxpA1frxX2pp8HqTQ+LKevuUhcTBgtf/hlnIyW+snn5SB5W34QLH92/GWkaZbF/Z/H//7n3+Of+9NWsJjJTGYyk5nMZCYzmclMZjKTmcxkJuOX/wNt9TyrkFh/mwAAAABJRU5ErkJggg==;" parent="1" vertex="1">
          <mxGeometry x="129.75" y="384" width="60" height="60" as="geometry" />
        </mxCell>
        <mxCell id="mN7ZcCOHAyqgkuWttd1r-38" value="Master&lt;br&gt;branch" style="text;html=1;strokeColor=none;fillColor=none;align=center;verticalAlign=middle;whiteSpace=wrap;rounded=0;" parent="1" vertex="1">
          <mxGeometry x="139.75" y="440" width="40" height="20" as="geometry" />
        </mxCell>
        <mxCell id="mN7ZcCOHAyqgkuWttd1r-39" value="" style="endArrow=classic;html=1;exitX=0.5;exitY=1;exitDx=0;exitDy=0;" parent="1" source="mN7ZcCOHAyqgkuWttd1r-35" edge="1">
          <mxGeometry width="50" height="50" relative="1" as="geometry">
            <mxPoint x="560" y="496" as="sourcePoint" />
            <mxPoint x="160" y="386" as="targetPoint" />
          </mxGeometry>
        </mxCell>
        <mxCell id="mN7ZcCOHAyqgkuWttd1r-40" value="" style="endArrow=classic;html=1;exitX=1;exitY=0.5;exitDx=0;exitDy=0;" parent="1" source="mN7ZcCOHAyqgkuWttd1r-37" edge="1">
          <mxGeometry width="50" height="50" relative="1" as="geometry">
            <mxPoint x="560" y="560" as="sourcePoint" />
            <mxPoint x="350" y="414" as="targetPoint" />
          </mxGeometry>
        </mxCell>
        <mxCell id="mN7ZcCOHAyqgkuWttd1r-41" value="" style="endArrow=classic;html=1;exitX=1;exitY=0.5;exitDx=0;exitDy=0;entryX=0.029;entryY=0;entryDx=0;entryDy=0;entryPerimeter=0;" parent="1" source="mN7ZcCOHAyqgkuWttd1r-26" target="mN7ZcCOHAyqgkuWttd1r-33" edge="1">
          <mxGeometry width="50" height="50" relative="1" as="geometry">
            <mxPoint x="560" y="560" as="sourcePoint" />
            <mxPoint x="760" y="414" as="targetPoint" />
          </mxGeometry>
        </mxCell>
        <mxCell id="mN7ZcCOHAyqgkuWttd1r-42" value="Deploy helm chart" style="text;html=1;strokeColor=none;fillColor=none;align=center;verticalAlign=middle;whiteSpace=wrap;rounded=0;" parent="1" vertex="1">
          <mxGeometry x="493.68" y="414" width="140" height="20" as="geometry" />
        </mxCell>
        <mxCell id="mN7ZcCOHAyqgkuWttd1r-43" value="" style="endArrow=none;dashed=1;html=1;exitX=1;exitY=0.3333333333333333;exitDx=0;exitDy=0;exitPerimeter=0;entryX=0.5;entryY=1;entryDx=0;entryDy=0;" parent="1" source="mN7ZcCOHAyqgkuWttd1r-25" target="mN7ZcCOHAyqgkuWttd1r-11" edge="1">
          <mxGeometry width="50" height="50" relative="1" as="geometry">
            <mxPoint x="560" y="560" as="sourcePoint" />
            <mxPoint x="610" y="510" as="targetPoint" />
            <Array as="points">
              <mxPoint x="837" y="310" />
            </Array>
          </mxGeometry>
        </mxCell>
        <mxCell id="mN7ZcCOHAyqgkuWttd1r-44" value="Test Pull Request" style="text;html=1;strokeColor=none;fillColor=none;align=center;verticalAlign=middle;whiteSpace=wrap;rounded=0;" parent="1" vertex="1">
          <mxGeometry x="150" y="290" width="110.25" height="20" as="geometry" />
        </mxCell>
        <mxCell id="mN7ZcCOHAyqgkuWttd1r-45" value="Reviewer" style="shape=umlActor;verticalLabelPosition=bottom;verticalAlign=top;html=1;outlineConnect=0;" parent="1" vertex="1">
          <mxGeometry x="50" y="520" width="30" height="60" as="geometry" />
        </mxCell>
        <mxCell id="mN7ZcCOHAyqgkuWttd1r-48" value="" style="endArrow=none;dashed=1;html=1;" parent="1" edge="1">
          <mxGeometry width="50" height="50" relative="1" as="geometry">
            <mxPoint x="70" y="550" as="sourcePoint" />
            <mxPoint x="830" y="450" as="targetPoint" />
            <Array as="points">
              <mxPoint x="830" y="550" />
            </Array>
          </mxGeometry>
        </mxCell>
        <mxCell id="mN7ZcCOHAyqgkuWttd1r-49" value="Verify staging" style="text;html=1;strokeColor=none;fillColor=none;align=center;verticalAlign=middle;whiteSpace=wrap;rounded=0;" parent="1" vertex="1">
          <mxGeometry x="123" y="530" width="110.25" height="20" as="geometry" />
        </mxCell>
        <mxCell id="mN7ZcCOHAyqgkuWttd1r-51" value="" style="shape=image;imageAspect=0;aspect=fixed;verticalLabelPosition=bottom;verticalAlign=top;image=data:image/jpeg,/9j/4AAQSkZJRgABAQAAAQABAAD/2wCEAAoHCBYIFRUWFhYZGBUYGhocHBwcGhoeGB8jHBgcIxkZGRYcIy4oHB4sIRkcJzgsLC8xNTY2HCQ7QDszPy40NTEBDAwMEA8QHxISHzYsJCg2ND8xNDQ0NDQ0MTY0MTg0ND80NDQ0NDQ0NDQ2NDU0NDU0NDQ1MTQ0NDE0NDo0NDQ0Nf/AABEIAOEA4QMBIgACEQEDEQH/xAAcAAEAAwEBAQEBAAAAAAAAAAAABAUHBgIDCAH/xABEEAACAQMCAwQHBQUGBAcAAAABAgADBBEFEiExQQYiUWEHExQycYGRQlKCobEVI3KSwSRiotHh8BZDssIzNGNzg6Oz/8QAGgEBAAMBAQEAAAAAAAAAAAAAAAIDBAEFBv/EACcRAQACAgEDBAICAwAAAAAAAAABAgMRIQQSMQUiQVFhsXGhEyOB/9oADAMBAAIRAxEAPwDZoiICIiAiIgIiICIiAiIgIiICIiAiIgIiICIiAiIgIiICIiAiIgIiICIiAiIgIiICIiAiJGvLxLFC9R1RFGSzMFUfEmBIiZprfpbt7Ylbam1dh9pu5T+WRub+UDznM0O2WsdpXK23dAPH1VNAq+TVKu4A/MGHdNxiY8ND16rxN4AfA1mB+iJifx17Q6X3hUNZRzCmi4+jKHPy4yO4+3e2WxxMh070rVrJhTvrbBHMoGSoOPM0ah4jzDDymm6PrFHWqYq0HDofDmD4Mp4qfIySKxiIgIiICIiAiIgIiICIiAiIgIiICIiAiIgIic5207Qr2ctqj7lFYqRSViMsx4AhebBcgnyECv7V9tl0hxbW6G5vG4CmvupkZBqEeXHHhxJUcZxOtWwH7/Vbhq9QcVtqZ20kzyHDqc44cTniWHGVvZ3W10+k4tqVa5vqvGrVCFtu45Kg8ST1JxgnJ6AS+7C2P7WuKtSuhVrZlApvxYO4J9Y4PUD3fMk+E5M6jaURuUjSuyR1sI9zSS2t1O6na01CseHvV6gG7J+6CPPHKdxb00skVKaKiKMKqgKo+AE91H3fCV2qarQ0hQ1eqlMN7oY95sc9qDifkJmtabStisQsTUJnnefGQdM1Ojqyb6NRXTOCRngcZwynipwRwI6yZIztPhH1GwpaomysiVE8GUHHmp5qfMYMzjVNJuOwFUXdmxa3JAdGJIAzwR/vJk8G5qT58dPlH2p7R22goFro1Q1QwFNQCWUcGLbiAF444yVLWieEbVjXLoOzOv0u0lBa1I+TKfeRhzVvrwPUEGXU/PHY/tJT7P3++kXW0qsFdXxuVSe6WIJBKEk557d3Uz9DzUzkREBERAREQEREBERAREQEREBERAREQP5MEx/xvfXFxXZha0fA8dm4ilTTwLbSSeeSeWQRqvbTtRR7N0SXO6q6sKdMe8xxjcfBRnifkMnAmQ9lX9XZsg+1ccfMJSTH5uYdh0dTWHRdlBRQoj3UQAH4s3Mmff0dFnub9yScigpJOSTh85J64lJOp9G9DbQr1OtS4f6JhQPqrfWQyTqqVI3Z0+oXq6dSq1mGVpo7keO1ScflON0Hsl+1/wC2ahmpXq4YISQiKfcUqOPI+6eA8CcmdyyhwQQCDwIPI+RE/szRaYjhdNdzyh6bpVHSgwo01phyCwUYBIGAfpJkj6qtRKFR6XGqqF0X7xXvbPxY2/OLC8TUaaVUO5HUMp8iOR8xyPwiYnzLsTHhInnYN27A3YxnHHGc4z4cZB1HUxYVLZGHdruybs42tsLIMddxUj44lio3Rocd277KU9Vo1KqIFuEUtlQBvCjLK4HvZGcHmDjpkHr+xN+dUsbWoxyxpqGPiy91j9VMq2uzRvGtnPcq0g9PPUr3a1MfLa34mkT0P3ANh6rcC9GrUVhnioLFhkdAcnHz8JfimdalTfXmHfRES1WREQEREBERAREQEREBERAREQP5KXtV2gp9m7dqz8TyRc8XY+6o8upPQAmXJOJgfabVz2yvWIJ9lo5VB0Izxf4uRn+EDwnLWisblZix2yXilfMq6pVfV3qXt0dxPEL0IHuqq9EHIDrzOeJP27K6Bd6zSbY60bYOWaoxwC20KdhAy2MAHiB554T12gOKDBeQ2/kw4Ts9Z01LjR7ZVGQKNHYMnbvqbF9Y6j3iC7HjwyxlNLzMb+5betwVwzXFX4jcz9zLldb0i57KbHqOte3c43rngeeDniDgEjiQcHlOy9HVcGjWp9adZyPNagDqfqzD5SEnY5rYVbEVHa0rUw6OwDerq06ibsAYADBgccOR8CTedluzKdm1qbXd2qFdxbAHdBwAo5czzJi9omNMlazE7X8REpWuR1fXNS06s6pZitQyNjIWzjA97BODnP2RHYOxubX2l66epSq+9KOfcJLGowXJ2A5XhnoeAnXRJd3GtI9vO1R2p0j9t2z01O2oCHpty2upyhz08M+BlToWtVe0VtVpK/qL6mNj5UHawOA+0g91sEHgcHPkT1xXbOK7Z6Q9m37Rtjsr0hmov2aiAd7cOpCjj4gDqqxXniXLfbzpXZS8q16Ne9u95otuREzzPPL7VwDyIC8RwzOB07Uq/Z25e5oHgtWojr9l13nuv5HoehwfjsPZ/WF1m2S4ClAwbKnjgoSGweoypwfDwmSaQPaKOWGQ7OxH8TGS75rzK/p+njNbt/Ey3jQdYp69QSvSPdYcQfeUj3kYdCDwlnMK7Aa2ey956h2/s9wVGTyVjwR/Lj3G8sE8Fm6TRExMbhivSaWms+YeoiJ1EiIgIiICIiAiIgIiICIiBxHpU1s6RZMqHFS4Pq18QpGajeXdBGehYTM9JtfYqSj7bd4/PkPkMCW/pRuv2nqdKhzSiigj+83ff6oEEh1GyZl6i3ir2/ScUc5Z/iHwuKXtCMn3gR/kZfej7XkuaXsFwQroSqbjgOuc7AfvqeQ8MY5GUsg6hpiXvH3W8fH4jrKsdoj2z4aut6WcsRavmP7hr+o6pR03Z611QuwVAfeZiQAFUcTxI48hJh4TIvR3aJU1HZW77pTZkLEkblKlTg9QrMR4c5r7jBMstWI8PD53MT8PMTwKilimRuADEdcEkA/DKn6T3IpEr9erVLe2rtRGaq03ZQBk5CkjC9T5Txr96lrtSop9nqEo9VX2+rLDuFiOKgtwDA904nM32l6tpxJtrr2in0WoKfrPIbmXDfHcJKtUZlNX0h2ddQVNV3I/8NaTs+ce6OGPzkeu1/2qVk9V7HauCGaoN1w6nmAnDZkZBz9TIGn6hrQq01qUAELoHISn7u4bzuV/DPKeLvQtV1+rUStWNK23uB3kGU3nbhKfFu7j3yJZqI+kdzK51C/oaRptdLdw60KfqQwIPfcbQCyjBfLZOOWek4ewp+ppovgo/TjLTtstOyW102gMIhFRx1PPbvPUnLsfw+UhynJPER9vW9MpzNv+K3XLX2imW6px+X2h/X5TZfR9rZ16ypOxzVT93U8dyY4nzZSrfimVkbuEuvQ3em0ubq1J4Mu9R5o21j8SrL/LLentuJhT6rh1aMkfPEtiiImh5BERAREQEREBERAREQERED8+XVf23U76r4PUUfhcIPySSJWaYc17s9TUb86j5lnMOaffL6b06NdPH52REiXl+ln7xy33Rz/0+criJmdQ2XyVx13adQ8NcHRrm3u15I67x4qch+HXKFh8cTbmcVQrKcqwBBHIgjII+UwCoK+r8l2pzGeAPhx5t+k7XsF2zSwQWl22zZwR290L0pufs46HljA4YGdk47RSNvmc+bHfNM08T+3V9o7WqNlzbjdXoZ7ucCojY30vidoZT4qPGWGk6lT1aktWmcq3MHgyke8jr0YHgRJFGslwMo6uvQqwYfUTi+0zpoFdq9tcUadw2DWt3cBKo+9t+w/g3DPjzzXEb4Qmdcu0uKCXSOjqGRwVZTyIIwQZwdXsvqWkHbZXmaOe6lRssg6KAyspHmMfCWmjdv7TUQA7eofqrnuZ/u1R3SPjg+UvKmuW1NdzXNEL4+sT/OI7q8acnVnL21lrbkB7mgi9W2IzfICmAfqJ0WraovZ22NSsxdkULkhVao+OACqABk+AwBk9JQaz6R7ayBFENXfpjK0x8XYcR/CD8pnWoa4+v1g9y52D3UUYRfIDp5scn+k60m08xpG1orHHKVpdY6g9a4dt1V3JbyzjgB0HIDyUCWcoL20bTW9ZSPc69ceR8VlpYX63o4cGHNf6jxErz4rVncvZ9N6vHakY44mP7S5/Oylb2LWLYg4DkqfMNTZQP5gp+U/siWR26lYn/wBWiP8A7f8AWRwT7lnqld4d/Uv0NERNr5wiIgIiICIiAiIgIiICIiB+c6KG2u71DzFWoP5arAfkRJ9SoKQLMcAczPfbG2/Zur1x0q4Zfg6DP+NGEg6xTNSi+OmG+hyfymPLX/ZG/l9B0OWY6WZrzMbQK+qPdnZRU5P2uvxH3R5mSrHSFod9zvfnx90fXmfMz+6CVal3QAwJDeZ6E/IzxUqM/M/7+E9DFirSu4fPdT1WXNee6U6pdqnLify+sqb2n7UwfgHGMcAQcHgGB5ifWJbbnyy19s7he2WqaXW/85Yeoc86lBnFI+YRGBT4AH4yl02ypXau7KWD1H27mYkKD3RuJySBwyePCeCMyRo5CoydUqN9GwRMfU1mtdw9j0ua3zatETxPlHudAR+NNip+63Efzcx+c9aeKFuypcWDPU6MlZ0DY6lMlT0yQwHHlLWV9O1qXtx/ZabVaiKd4D90A8Bl2bA454A9PIzPjva3Hl6PWdLgpEX8c86+v4eKvq9XqECnTtaSNgU0A9Y3m9Q95j+X6mTc2aGm6KijgcHHHIHA555n1u9Gu9AZqtWiXWpjLUe+EwDwfhkcOvLhzkR9UXYX2VApHBih2nw7/LnO3i/dwj02Tpa45iZjc73vz+EfS7oqi54rjGPyketRW3r0jTOAxHDw494fDGZ7s12Ig8v1nuwT11dm6IuPmf8AZm3NOsfLxekpNupiK/a6kfR09o1WyXwdD/IWc/kskSX6NbX9oaq1TGVoJUbPTJUU1HzDMflMGCPdt7/qltYYj7luERE2PniIiAiIgIiICIiAiIgIiIGU+mjSyot7xBxpn1bnyJ3UyT4Btw+LzlqNQXCBhyYZ+vSbZrulJrVCrbv7tRSM9QeasPNWAI+EwPTg+nVKltVG2pTZhjpke8B5H3h4g5lGeu43Hw9P03NFbzjt4lH0gm0rvTPI5x8uKn+UmSbhdjsPP9Z8dXX2erSqeYB+R/yJ+kl364b4ia8Fu6m3mdbi/wAWeYRp4qOKYJPIT3PjdLvQj4f9Qlk+GWPL7sNvAz4rXNk5cKWVlwQOeQe6fpkSdfjD/ISHVBZSBwOOE5esWiaysw5bY7RevmFhpNtW18t/yqKnDMOLk9VUnr4nHDzlnd2v/CdSjdW4IRMJWTJO5GPFjnr/AF2+cruz/aZdMRaNZCqrnDqM8ySSy9efMZ+E69XpavTYKyujqVO055jB+BkKY6RXUeU83UZsl+687h0949JEu63tJf19qaiUWddqolIgvSTmAcjJ8ZxdpWTTrGk1Qd1aKAg9SUA24PMknHznx0W6RNPv6FVEN1a0qlujkDfsrZVFVuYG58AeGPGU2v3vtLrRQ/u6OAfBnAx8wo4fEnwinG0cnOlPSX1KkkAc2IHIZ47R5DlJmiU9qFzzdi3y6f785AviXCovvOQJdF0tFALBQAAMnHKZ+qtxFYet6RjjunLbxD+Xtf2ZGfwHD49B9Z3PoZ0k21tUuGHervhT12U8gH5uX+WJmlc/tuvQtkZVV3VSxOFBY4zk+AycdTgDjP0VYWa6fTSkgwlNVVR5KMD9JHDTtrufk9RzxkydtZ4j9pUREuecREQEREBERAREQEREBERA/kzL0rdlWugL6gD62mB60LzZF5OB1Zeviv8ACBNNiHYnXMPzPfXS6hb7vtIylh8eGR5HMn1n9alNvFR+YE6D0jdhDphe6th+4OTUpj/l9SyjrTzxI+z8Pd5q2bfb0z4cPpkf0ksMa3EHWZpyzW0+fE/l4kG4u9m5SOORgjljI5+BxJ3A8xkdQZ87mjTKOBTCttbBBPA44H6y20TrhmrMb5er7UabNkNkY8DIqaitU4QM58FGT9AZuvZns/ZG3t6qWtAF6VN93q0Ld5Ac7iCes6WnTFMYAAHgAAPoJXN5lbGOsPzY1KrVGPZa7D/2nP6LIvstezbelG4pEddlRfz2jhP1BE5NpdisR4fletqdS4cuz5chVZhgE7GBXcBwJBVT+ET7W90zbURCzHgFAZmJ8gBknmZoXpHC0by2cj3kqgnHE7WXH/WZy1peihf2VUcAKtME+RcAn6OZ2N9u9kzEzqYV1jp11qdwtJKbCvjgrAoUHVmDe6O9z8xjpO4tfRrRsCr6jeKGYgLTRsFz90O/ec+SqDOn7T0RYarptwBj1oqUHPjhd1PPzJ+glpfaV7HXNeibZK1T3qlwKlSof7lM712L/dU48pD52nuddvwqe0Ho7s7+2It6K0qwQmmwDKSQOC1A3Fg3IlgSM5kr0W622tWKhyTVoMabFs7iAAUY54k7SASeZVp1Njv2A1HR2PVFKr8gWb9ZmvYNjpesahbD3KgaoB0GHVkwP4axHyEONViIgIiICIiAiIgIiICIiAiIgIiIFL2wT1tjeL429X/82mC2DZt0/ib9T/nP0ZeW63lN6be66sh8cMpBx8jMO1r0b3ui5aj/AGimPucKmPFqR978JY+Qkq27ZRtXujSmn8YZEhU7/BKuCrA4PA8D4FTxBkxKgfkQfgZbFolR2zXy2r0a3XtWm2p6ohpn/wCN2T9FB+c6qZ56HbnfbV6XWlXbH8LqrD/FumhyhpIiIGQ+lRP3lo3nXX6hD/2zPNVY0wjL7ykkfEYI/MTTfSrQeqttsUu/tDKqjmSyPwH8sz5tFuru5pWj0wleoNyqxAGMMdzMpbAwjefDlJRaO3SM1nuiWj9v9ep50196Arc06jDcC4QodzFRxCjcOnhJt32x026YF3o1W5DNBnY+Q7plloPYGy0qkivb0qlUKu93TfubA3sofO0E5wBifLUfR/Qr1fXUKtW0qFQpFAoiHHXbt4H4EDhIppelX9AI70aa0kwdzepaiOXFjvVcgePKc16PwNa1K/vlH7oKtFG6NwTJH4aan4OJNrejT23hcX93VT7pcAH4ggj8p2GkaVS0WktGioSmvTiSSebMTxJJ6mBYxEQ4REQEREBERAREQEREBERAREQERECh17spadoONeiC/IOuVqD8a4JHkcjynE3fodpsSaV06jwdFcj5qUmqRAyb0b0D2d1O9sXYtlFKtjAbZgqQuTgla2fwmazMy7dL+w9U06+5I59U56dVyfwVGP4JpsBERA4XtqNlSyPhe0v8SuP6yn7VsNO1LS7k8BvNJj/HhR9BUYy09J9T2OilbGfVXFvUxyztfGM+ecTkbu4u+3z2yU7R6VFKiv61t23HVt5VQRjjhcknEOtsiIhwiIgIiICIiAiIgIiICIiAiIgIiICIiAiIgIiIHJ+kbQW7QWVSmg3VUIdBwySvBlBPUqWHxInDUfSNqOiALdWe4LgbmWpSJx4uQysfMCbLEDKaPpooY79s4bqFdGH1bb+kVvTNQPuW9TPm9P8AoTNQa2RuaqfwiEoKnJVHwAgYlq3am77Z02t6VkxWoV7wLue6wZTv2qicVHPhNf7OWTadaW1FyC9KjTQ45ZRApweo4S0iAiIgIiICIiAiIgIiICIiAiIgIiICIiAiIgIiICIiAiIgIiICIiAiIgIiICIiAiIgIiICIiAiIgIiICIiAiIgIiICIiAiIgIiICIiAiIgIiICIiAiIgIiICIiB//Z;" parent="1" vertex="1">
          <mxGeometry x="340" y="609" width="70" height="70" as="geometry" />
        </mxCell>
        <mxCell id="mN7ZcCOHAyqgkuWttd1r-57" value="" style="endArrow=classic;html=1;exitX=1;exitY=0.5;exitDx=0;exitDy=0;" parent="1" edge="1" source="Rh9i2QMeJr0mw_CJxQJY-7">
          <mxGeometry width="50" height="50" relative="1" as="geometry">
            <mxPoint x="179.75" y="643.5" as="sourcePoint" />
            <mxPoint x="350" y="644" as="targetPoint" />
          </mxGeometry>
        </mxCell>
        <mxCell id="mN7ZcCOHAyqgkuWttd1r-6" value="" style="shape=image;imageAspect=0;aspect=fixed;verticalLabelPosition=bottom;verticalAlign=top;image=data:image/png,iVBORw0KGgoAAAANSUhEUgAAAOEAAADhCAMAAAAJbSJIAAAA/1BMVEX////pOCfpNyfx7ey0VEu5ravrNybcKxbsNCLsNyX4+fn7/f309fXpNCHvNiTh3t7Z09LiNSPeNiXd2tq1XlXFNyfBsK7l6OnRQzfJT0XyNiS+nJrp5ubKST7tMR3Z0M/BfHbVNyevbGWqkpDzLhagXli3dG/SPjG4bWfJxMS2trbJUUfbMR/HRDi3e3XLtLKmmJiySkPNvr3ZOiqnTUK/amOnVErJY1vFqafLLxyhd3W7OCmpYlu6j4y+gHurlZK8Tka8YVnXwL66ko6kamS2pKSyQDKpiIW2WVPDaGC6KBTGjIijVk3kFADYSj6bbWmtfHm3OzDFmJShg4DRGwC+kv3EAAASkUlEQVR4nO1dC1vUOhNmAyfbstvuDQQXKCIoIItyEQWPChzFc9Hv+1DP//8tX6/JzGQSurBXnx19oO1227yZybwzk7TMzc1kJjOZyUxmMpOZzGQmM5nJTGYyk5n0JYvN7TfLvd7F8buT+rjbMgxZbN7+HnV93w/D6OL9yeK42zNwqZ9fBaGsZOJHyx/Wx92iAcv82qpXKUSIit/+2Bh3mwYq9bXVIEWWA0wgPumMu1UDlPraLtBgbqntJ7+OFmtru0EFisggPv9lIF5ueVp3WvzW05VxN20wctTzKbhMZPDsVyDG2nY1BLaJNbnzbPq1WF879SvCNNFCi0+nfSxmXlTYdChka8rdTUz0AaM+oTemnBfrMJIB0CDoqeZFFMmkuIQQxEyFmGItxkTvFZCKkSiQiRaGurc/7rbeT/4svCiAl+9ilLK18du4G3sfOerBMQis07DUigyXX4y7uX3L4nYvFALAybQptFb1+Iw3usvTpsX6p9OQelGhAALMxW64+qg27kb3JY8ITVRygNjLwN3g8aupqmw0z1pSmDDIzwrQopw2iJ29ljThsQosJDiYMohPI0kxqCqGPgK2Ey1O1VhsLAUSY2OHIVRo8PjRuFvdlzS+RZIFYhfvcLpIo7GUQnSBo59NG/U3UndjQQjdqT5n0qm/TuoujbOWbzFSyiXFsfDw0QR71Pm1W1Ksj0mjKEOR3FBgYtTBjrcxuaQxv7ZbpcX6JuHFu0VOLi/W13aDsPeSVM86e5o0kGHaQ55JjW6SjF7GuR6F2Ngzqf8OmUzqX1zbTUec3zYgflOkQb0LigGE8qsy2JhA6t/e8or5CAPimwgYKudEKdhJpP6jql+0koG4VEAsF9rEEm5NFvUvXvaymkymxd5LQhoN7W6ESvBNTwOrVpNF/fW1rRAGKRxExYsMsooagaCGE1P/xLgbNAFa4bXYOTN40W6x2SfBxFB/XvhFzTYhNjMtSmlmjeCrWqHx0UnhxXwRAgnK/N5zSv1nrdDzglYr8EIcAzBBa/p/QqKbxVSDpu35VTO6ubg6+/j16/Prw17ko7Otk28TQP2L+Rw9qdVXWNL4o7k+Pz+/vr65tnThSS6/IAcmgfq3Tz3QOBS3mBCVPhbXzxdiAhXw/KyYqnxqfnTs1H/UU4Vf09JMiEAaL3uh8Q19KQVxvNSflO4NgACpX3XM8NYvs0CWrzPqre7W+LSYET1ma5EbXA6x99G+fq3+6dSZVxVeaHzUnxB9PhcBA5rCxFLAMS/atbjyMiZHBUcVU/M5Rx3CjSvrnwc0wVhX3r54LNq12HwcGhcgikxlPNSPIplcjVzE6RtZP5DtOOcwBrCZRI6F+ukiBOT4kYRVu6do/G7zp+RSo6f+2ie4GE+oUBLsK29z4Zil/xxxyocXzXdGTv2XW545KWGEKOl+99hhYDdVSU63STBa6j/i2ZoWP9Nf0WfHhZoXMEDlTT0/MMqC/2KyGE9gz0DbJtTSmehPx6XWv4SVnCLo1XKr0Es4Rkf9MdH7CAncgLleFgFEN45rzR93jSUMKGzIL5Juj4r6zYxet4eaVvLTiXD9uEtVR0yh+Hh01G9djMfFl+IuK218Nwe0AOQq1KFkayRz/XUVyRjrfogyigNOT7N5EWK9CaxDrFYxAogFQLquiZO8cd1jx1Lny4wtRJkLZlo8GO5YTBbjcbVdPgPK9kIX47/bkeo7aDERAzBT75Cpf3vLR3ELaZhuStae7KPop/2CzeOoOE3HDCo7YTpSiKFSv4XojX7H0MMNx/rRGCIzM2W12OSD4VE/zOi1svQmidt0PuzdOrxD56+84C+U4lSuCK8F0uJhFfzTVfewNw2lke5WRuY7V+U1r6UUFBLZIx8Mh/rr+fwgxWH5jSS42ne0aPPvlnllu52m1D8E0phnIxl6Z1sTg7eORyprm2dtn0dkpZDBQ6yTyjbCoANI3TLsYWXr6tye6deaX7csoQ0vYvDL/Or06bM7xFznHKx+dDz9u/KJemk3/8f9N9isfzExURiOES+afyLQMaF3kk2/teFg/vqHXqgyCnhJxviz/4Mt+Cel+7ujNKOfsfiwXjP/G6nApRANijf2AeDYLAZGGkc9X/C1FMB62Y6jHyRC+O0rsdkEItcxjj4bFPXXUqJnEOp5FL6TAccl3YARLlRviesBibXxFAqGqT4dDPXXbpIxaOlZdjjmP5HaBdXhQrS1RrS48rVteRTTSreha2yXBbh/Zcy/m9rUXkhXNfSB7CSC0PMeU45s6rl+8/khAS6qmiBbew99ZqoWBxywLG3GVdplQvtRxzV4ijCOdE5q9GZZAMdYjAAXFPoeD37yLQNYzo8SQ0K7HMI4YT84obe7Npb5oZ7Sg7/47IFPvsV3bEk2HLY6Tbb7UzF0WJHRYzqMmn9F0nIlLjivPPT5xQSgE4/5GRMAWBHG4eUVhdjJ80VVKDUHI+mBhzzX31wICoDg8pQOcCzDdoZgESZHgwNDi0nWnyy7kRXi4iylrwc819859uCgKDEYQVACXGq+z+nQArEbRdVqNYq69qwKXF7c97n+5vEOuG6J2hq6tdEk1kpjiR4TjzrXebb08+jFixdH7xZOfZ88W2QaUkK193quf3+BfUiZwwQ+Zn85EQrvgEJUK/5X9l9uVIzlDMzt7/Fcv/bbwj4A3JgpdnYcJq3zrux5VX3/DD/ISH1Nbqx9P9dfK7youpT1tQjFKebH5IhFh2mtfs2x7ubTlmfvNyWxR+2HF2tM6cShR2aH6Q4rwliLW7d2V1GsabH3XQ6xH15smotB+8sPmaTDgTCOoHsf7FqM8yrKG1yr/LZj7Q6R+ZcMQEq4KC7GRRrjeRg+LlWfxKeHpw6I63uBtk0wM0s63W9/Klu6eQRnQItGAECCqZXioAAGNsU/qw7Ts30HxNrJIVx3I9R/oYCn7QuXT2yXwFL/FlUwBDo5yFsssExMINmGjS3y/y6I8x8DGK0qVLQF0edySnxxYU1EKQane8s/Kg4buQW5mnfQtDbpj9UQXY5+N7ezcLlcQvwZFg4F3uBCX2w6+HOwQo3RIcwFZeuj3Z82/vbw3ZET0CPHOd+s5R8JDcDwMDbhToKG5PCl2UA8t9c/61+pO6X3zLa630oh/A9ZSOJuODyRPd1mpeBSKcL/OtzE4vmpJAPDuF+yE/5eDiEPi2u1dqx6eIgKoZb8BDNqEyDbEoGRDQOpvdr1i4WZAnayHhyZR+6VQ+jwGyzM4pbI8aCGsAjxCYHD0czNvVr1BRq2AibI6n7hRSmE/2CTLzsQxR0bJkJkdk4dzr3a9elFud3wSymE/wukAYn6SQdA5ojNl8LPneOwdn7Kehra/c6VLVr2eT4s5VArSjN40YETYXqCv3tub1L9R5usYaTzd/ktLkshrL+P2EbTTfNzwlIVvWBbOBBmbZVtOpMBJOfDiu48XWnWLkd0v5RML06WmflK4wjTAU418zGNluCt3dVsboQlbEhWP5QDGKcrbfxYUj9IKWorQtwnIjFTG+XXf/Qk04ck35HeX6UzRPg8pNF6BrW2F4GPQpy2KoY6JTizNXDzynw9qAD3S28lgw1a8HGIToGNy5Id8EPgcyhpcOMQMahvzEYVJxephaCdAje9jfM+ZvZrm9kLLcxpktJVxXzw6x6wZ8CFBEZhMWtMNrEoKpbGZIeDjfO+iqa15hnoN0H1gfcgFDjRhs+15xbqf/CWY/2bVQ/cqGgUGZHBYX8AY2kueeiqhu5KKlOdxlopOTkw5jHmar/tepYOBofC3Zv+F5903uxUKiq0phaCXYrqY2GcpKZYnDl+3osy3DrCqli5bSOiyM9VbjT7enfLtdTaKiuv8TMVtCeNWQpoO+bGHTFNfsGw+vpmvRiNi43LL8nztMQdKJTFMe++q/g7S4FfAfph2669Ic2Z1M/suMH4Ammj+KLs9o5vz/ebjc2T88/fq10J8esyHryXt3ovDSaSkobSDkZEkSCHBDpEHXBnT6AfZRj1lr9/+b5cjUJJFYiMOvtCcHhvgCnEbGKEDXQBwJwRXXzFZE/aNxIalX7YDX1NycSXol7pjwep1BKIpSiQoRHyNXvkzXQHvTo8is8IHgQwgygtS50E/slNd8OW23xpoX9736BrwyAiMdE+iZ6R5pmwJJ8cbILrboQ8IouYt/QOH6bBDOIS49hJs9xNtI3DPrBZbuSv3oPoTem83jHgEGI3iYT4BoYtzDYL7ILBfcyOSM/tXjzAi0JJqF/gO8JxYeJWgRAMCvj8sIiYdOdgr6KvAOoF+Snh4B7XS54Y6NeeDO/KWykimAID7DHGf+U9FuwOSIOJcFOm4KbAXcBpOBwiMBVhru1kpHMmkp3uHd4M8pEEAyJvpkwsoyT8FyE0nsTnvydMY8gkGIQXBZKkxPwrHmyIoAIq6Vz9Nag0zb+v4lUkdw0CShQD4EEXRGc74ABSzZLBwVoH9PniyfOtsmvHgf9Sx7z+E967IWZZv8nmGI3BHOlv2TvbxC2qra8dovIS/0YG6GPBB8MAOGen/rtFtpjFLvXzVYYTjTtwdnyvjL6MpNQv6O1IlxcuFfZ+cM2t5qndnOYVJlgLMmNSsJWR58CI3pSV1/bXWGJmRp7BM9Yf5hD/lBJ/C/USRqgrJOHFEB+x7MA3WDsFNFK2bV2+shCCOpD1AmhPPCCjLwUx86i0PYimqSF3F6zLSH6roiJF+gu5FEzylfQBqqECZKMbOz1mfjSyT3mtfOlS3RmCL//QhLeEbBaFDUdjkNcJlx2LBt/RiTzbxQqAw6EJJJr6DW2pLZiBiO4bR/j4qHrHKhJwTAwjkmEloX4SCAtBN4rPhYzeOa7VWQ7Jt6wBakL0qyMBmHjUvCQvtEEySsgPRtuOS60fh/BL4GoMznAwGX0piDH1k4UelmEZO7+73t5i9Awl+SJFDrcGmi65ZeVNpN18bkNCRTJ4it3hSjOEMKNUEVFFXa/oyAFm9GWksRTQx6/hZJ62M+F8aUT29hZhN0x9zBtkRl9GMl50eAi1Fz1zXGbTvtITGawMBpvRl5G04O/IMJQRd784nva45NnCQOhtOFYuDklq+d8E0ENONQmnCbJnf1q3li/dESYmZBMj4kHautxQ73itTGymt9buby6HXOlc91W6KccDcC6jfuU/YZuE9qjxfrhqW5NX+xnpl35oNwrnW5OtkRG9KZ0lzWYCrI4kSYH/0tLA/V3PqBaa0VG4O8a/WpJSP2wftdW0nf4p7wcb1x6N2Ki5inSOfpzvg1553bX+TQB9xGNfUNN4GpjfNYgxvBjznxBQWT9lwyLUseYEnect+s5ERp1DzujLSJL1M4MPVJfSrGD3RwOpsX5yDf7Gjg4+VV/la9VWR8+DhuRz/bbwO8cZtv9+1annra2tbH7dKDPZM4KMvoygVyFgUwUiva23P15tNjud5sn5k42WsfqyYnodb1w8SKQGChvIjwIVJuIH7dWDt7Fs7LbSd85zflSRR2zmYyN6Q2oF9TNtRail7wWxeJJO8rCUMYqaTGlpLumKEkyM0V8DZrWFiELArXB3IsZgIY03O3mMhlgCjLOiJJ/vgTlrpWqt0PjjMRO9KWiZX2mxKVcMt3R/P+m8T7J+znUIbbM5KFKRM1euDbt0fz/pnLXoC9YJRyIUoPiPTbmSvuRqAojelKYJkQWKk2a6+jKRCSF6UwpeJApD1gg0haxT15THmPDeKXiuX5gWywjiDFFocEIBziWGKiUDR5DfaJNCnyiiN0VTP1WcLcxGqy+Tmsew5ugHJXqZH6UFB/kBIx3iHP2gpD/qp6hHXLq/n2RZPxxnkC0MRaID/qhL9/eTnBcFcZQQrqZJNf6SX95DVt2PUpg5DZvSdDEx3vAHvBhveJLzopHwi+KpBsFinWgeJFJD0Q2vwsKCi305KSWLcqIf7oOoBPhhZPVDWow3PMmW+TmSe/LhxBO9KdnDfRVjzJGwO/8/cRl9GaEP99EtoEI5gRl9GUmoX5O9tXIohKxMCw9S6Zy1mOf6dUaYI/Rb15P195v7kOaZ/d3HSvz2nuu9LRMuzSdt8NYVxrOKWIN7zelzMlo6CKJZskne5jzFGkyk8bxYyYhS4gKpDKYdIJzpBUAVyuD9Q9/HPQGy8m3H+n6gnTcPexv3hMjKs+ThPsbNSO/bPV9xPGmy8rSYJRawLCODpV9Cg4k0nrd9NHmR5rsPfyf+BEkCMUOo1p7+WgAzXixeZFoAnGqiN6XxpA1frxX2pp8HqTQ+LKevuUhcTBgtf/hlnIyW+snn5SB5W34QLH92/GWkaZbF/Z/H//7n3+Of+9NWsJjJTGYyk5nMZCYzmclMZjKTmcxkJuOX/wNt9TyrkFh/mwAAAABJRU5ErkJggg==;" parent="1" vertex="1">
          <mxGeometry x="129.75" y="120" width="60" height="60" as="geometry" />
        </mxCell>
        <mxCell id="mN7ZcCOHAyqgkuWttd1r-64" value="" style="endArrow=classic;html=1;exitX=0.5;exitY=0.5;exitDx=0;exitDy=0;exitPerimeter=0;" parent="1" source="mN7ZcCOHAyqgkuWttd1r-1" target="mN7ZcCOHAyqgkuWttd1r-6" edge="1">
          <mxGeometry width="50" height="50" relative="1" as="geometry">
            <mxPoint x="560" y="540" as="sourcePoint" />
            <mxPoint x="610" y="490" as="targetPoint" />
          </mxGeometry>
        </mxCell>
        <mxCell id="mN7ZcCOHAyqgkuWttd1r-67" value="" style="shape=image;imageAspect=0;aspect=fixed;verticalLabelPosition=bottom;verticalAlign=top;image=data:image/png,iVBORw0KGgoAAAANSUhEUgAAAOEAAADhCAMAAAAJbSJIAAAAk1BMVEX///8ybeYhZeXS3vkua+YqaeUkZuUoaOUcY+X8/f/u8/31+P4XYeTx9f3p7/z2+f7c5fo2cefH1fdRgeltk+yguPLg6PvO2vi+zvZ1me2WsPGCou6nvfOxxfRciOrI1vd6nO1GeuhkjeuIp++uwvSQrPBVg+lBd+edtfFIfelpkOuOqvDAz/YFXeQAVOOmu/MAWeO1iXdRAAASkUlEQVR4nO1d65biKBDuIARUjEbteL/bXlrd3vd/ujVqFAiQIontzB6/M7+mFSkoirrz8fHGG2+88cYbb7zxxhtv/K8Q9YejwRmjXe/VU3kKWl3GfErOoD7arquvnk/ZqHxz4j2AmTeuv3pOZaIn03cBC3eNV8+rLLSnKEVfDBQO/xf7eNyn9y+Bj1a1V8+vIKr9Dscm+uLzSP1V9OpJFkB1smc2+q400vlfS+M6RFn03Wgc/I001sde5v7daSSnbuvVE3ZE4zNkQPKuIKz7Nyk69WGInOi70IiWs1dPHIjal+870xeDsk771ZMHIFghCj1/6X3kneMfrrBGI5qfvguNrNN/NREWRIOC9MXAaDF5NSEGtLqcFKbvQiPDf6JxVema1U93oPDnD1PKZ0u9+ZAb+Gxc/UE0zjYl03eBj7/+EBqPnTL5U6IRHYJXU3c2jzZW86gYsE9XL6ZxsmBP2r+ExpcaV9V1CDYfitDIX2Rc1ceO5sNtvjnuzDONlV+nr7HLQ59HSXewzbHxv25c1Yeeu3l0Bpo3Yt8GyPRXaUTT36OxdmA5zaPRdYBjnu2PDY/fMSCjVX71unkbY5pPABO+OT6fvjnJTR8ZJKNMcvG4dzGunmt4RAO/gHlEV8k4x7wUxudx+zwaWwXNh1IovCjl66ZtnnlR6RZVrxNBU4BLb0Db8o2rXgnmEVkmo33RgkNhFO5K3cdZKeYD9pNJLUsYzUfD0qJzvU1J5hFLdK88V34K2Pe/yolcrUozb9nNjdbg5YyHfa8EuVqd5lJAtPB/rmNG5Q2JukV9VtVNUaEggB6ug/YKilJpzEVBTh2VOBmPdK+DFroOVdBOoYujV9KJuYJsrqMWvQ5l+N0iFO5L9VHgxXXUcT7TxAReIA4QlbqFHt5eh92VS6Hn5aewXHby8P467GfJFPL8QblRiYL0DHRTTPvlsoag8DpjUaorDe8TqVeG1iYOvMhLYOCVSiG7O1qaxYNwIrCX1208K+sYYkIR4v/c8y2qmCO/zFBVXgfOsIxjiM/E0elqfWwJpkCrvT5MCWI+LmUz6TAnhcWPC/HpYt43uayD46FDWAlh1Yfl6YZGWPCHfTT9bGVoxtFkQIrHPsJ8pmKrkFAn3NvB4g2NyZQXPA88X0rV2ChoMMladYKmLq7NaEX8bGY1f8If56JwbiID7b+noU0vIejbNZTS2GXkUSEaUuMnHq5YJ2wNa0bjrJ7a0BhgwXyZJ1RU//TMq0a8cdAIfoysE+YhMDAcQ367fI76v2MU5lUTGyuTQ8i/2bkVk2jgee78vt7X8JDMPd2Sk9x3U4xoqmVEOk0+YNKUWR4L6qDnGfr1WIO0z4x1CiaKrnF6G8nm7httG47iw5/ugL3+nAkUfkzUbeZfhZOZgo06KAkfLNgzOLES09MFdYN2TKbCh8bSuSC0lODXl0wFCQVfk9Fi9d0dUkaHGBcF5afAqHRhPO6N1uTQEb7X6u76kdEtfxQXl2zFUTsmAc7clW+jIY634nL93C8N9G1werU+v0OOKBMpPFHEt4O1QempePfDKC/b2uhp9d0F3Lfx7iGhuF6TG6OyuXaYaLj3r4YSFWRQFDMIJoh2xlruCrY3menvRY1zYlZ83JXvpum+j6fG58K8ZjgmAWk9Ce0NTyaFibAZwY0Pz0Syrk49qHdofK6lZWsMbOlXW1flu2X1FlFfKFkKDl/dk05aT/aC1YA9YVVqgo5J+FRzhpodFnanQliiOiZW9Ry5XlOpi0DZRrSV7liNGtNWCoJCQbLIhhlh0/Q+NkaS3OovMoIdaO1IYaabDbOujS9q32rISlQd68oZIGhkDXjWuplpRmTuRmDVKJYfoL5ZVZqkNUyRwmpKnaDEcpeuUbb9iBduykYN5ITic/23G5olT9zBV2zSC8hXhik2uqAET+amfLdhIT601M2qFWqWXNKFtDlDaKOdY7SFOQCQm/INdbPpoiIahTym8Fv8zLdufEI0F0e1A5xKEp0EApqX5X+mvjrW23CyJBhox8c8fRhrUG+RfAwyAXZCheqy7wyHRrZvTKI6zRPwUBx3yT+pgCPtvuohae31Qkq2jPUZNZgv1aM4gTv8mEt6JnzhSFqv/NKeQ9kdpg0hEo3LrAbPTPF3DhR2oT5a9KP5dlvniENSYohuCZHWP2A2J1Q4Kd9Qb7fhmq1107wle1I0liw/aMeqdsAe8RB+50dQF7TRAbRO6TRMUl1T9y3FJg+dyTWTBoUr333goKRjXqSOwoeyHFA8CBhZlNwldL0dlO8V9L63eEarB5lTmbTAFYl+nYgRVgN6Eh2U7w2M9S1bGKNNxYWSfbYt8U9ob2cv4HQ83IEexBpwzeRTmGazxlIQ9Vz6e/RwNmGmsZ6lD8+gdyKFKt/ATCi8FZWIfqgZfkzvy3+S/hDcg7++LghQoZKqZHDdpsCg3kxgRo/k3qqGNNTwWmWRjMWk/2/cJ9XVuKJm1JcskTHwJIreaitg9z2moi9wjM7/oVGbqqMrQ6jX8fbyG+SkE3/986pwcSzosZEtNDOqOYZrhjEjaTPMjoRiTJiywbPzhYlRR+cwvRgnshSbA4U7ginfwGw26fa56iiY6ZS4oEv9Tcqd1luGi6FO9g2vPy86kMG3Pocp38BsNi4eoJtbBzOtGVoLdKQ0tLL9xtUeFY2WJlCN9HUrnAaMJSSD8yF9Da5vMLrJ8mIsymZjxF0GUPkGLpdoqwiLgpYFCiGam4cYR6KeA0wrxj7kV4BuA/GcVMWv0E7uOohgL7CPLMmAl74q0LSAnWpMhK2SLQW6zZlIF20lXpT0POCljyDlCbCSHYnjlVNCcK6y3QqVh5HYFOj8o3PAD8H0XNF3V1UlHc4TDG6rLixpEYF1p5BU0xpMMIvs0EqvL3MuZtFZ/eK0gLoyzj4hFZjUEo+0ZnKYubiFPuJwueY3RGFmiWdK38lO5oGlmUtpudoLlDslX690WyRpTeaYtASA8q33RqcoXAiiVH9ymUOu2Uh7yiSbHeh3yL7zm7Ds9aT8JYYpDzXt41jFLWgH3VRSgSEcK6lNP1AXbtZtHMBkFhXiLIHh5Poqnw45ueCkiqGBYX/EsLEhCS0FnnVTZUS37xTOH18xpdP5infiLvCxGnM3UIixYFxB83kzlW8gu4txFtPqKlwaPE4rWcisZFpWX9iPCOrhzDr+QO1IjLNogxyYcOXMLwR5RKVg4kd1ow/Ti4lOATit305gHcoLwnWXdutggvBG4ZaB9CmmSJvhlmqKcUVnXgCkz+P27HJgdFuiUFEZMeXbeT+lWshXCk3xUmu89JhyRETFCahrZSrf0MI5MfZ7eMzrvHl8M6zoEtxkhV7rgK8dR1suJnaJnwJTmFHnBY1ui+cwoRD7yP+emPRC2SgzyvTWT4exxF2ci0J7qmkVGskSlaOYSzFFdL+aWbzqUv4KppZPNvrz7bUsKheXYqvnuwJVHERW2CHK8Pc4q3xEVJ2zHJvVym7qMyJLGqgstSrfa2isjgjlxZ90dAQ4LsTkBEhmSK0/PwlzBcc07XVeMLXbkzcB6HlqozuD+AhoIQtDQ298O4Ok081MwHv3lPXGrb0wCvP07ABHEa11XgG4tpPnqhaLW0Sz8DOXL84h7QSZlW9oEy7Mjzmdos3xOOc3owOcQnNE+QBzs1GezvX6BVROQClhUb6t9z0mhFLEeLhZ/X6PvwsmHT9+5iSTQrw1CQlTEckZPmfb6Xw1XLejF767UQ2Ou/l0izg76z0WSo11XsbKMBr+RK6ys1mZHL4hHVYn08Xg8+jU3jJo9fq7jjlx2JjmY3KzpbLzrKg2WpNhN+RxQTrlmaUscQdp4p+3ZT//aQcunViCgemKNNZ5GRx28MTNWus4HHQwf7AQ3mbM+VHFiKl/PuTT0bhnrhdS8GUg0ej5NhxDUG1f1N4NOqGPKJFt8axNVBNNyZlOst2M1j1IeMeUb29INQ1Oho+nsyWqyqlccXTmSd3PZS2PzpuMvbgHw0lVL4P0PEwXuME4M3mzFArrs68NpV+RaMabM3D8DBFidhJKDrlg11+eTuFAMT9NlbwG88IkSsVtqLbnIY875VJ+Eu0Dk0Kbmf9hjNCLPuePj/HpUmBEGF1OhAU3uSQMtXpGj+TdMRuswoeIlmxpk9mVfYaHhknKfo67lwcT5g2S3YXVSD5g2nKPhO24Pv3YPcm+FoEVTKVu2UmtkUnNEL8px+/IqTOuNJvBl7HSxHTlGw8TZuF0g1R3n6T+/eiLsFVp0YxSv63PwGKS6qsqzMRnXmhuNYGRYTlt0V+NoJQcItVQt57qWva3iHaVG1KbN4ClLaxrDqvNzjMGoMyNMPSQUvd0QpEordRmJ+xhXzWedQwuZxm6duRipmThmmtzIypuh8YwUa/7a+SOKUFMzcIqDmPHflWYGq0DQ5MBI5B4WNIiQ3V1JFvBlAtWs/tydaVjGxmLT7ihPUy2sUQSdupMlWKMu7xVU0JSeg2XuQwYwn/AovC1HHunyjXiKT6V92p350YlfqiqGlQ+vs6n0OrIc/D3XCAWaH80ZKVb2SrhlMuVeurSECm7+ixI3VZdDWupWLl1T5VFwky6gpmsWIhWhNJ+TN4lIu+wSekxzSizFebUrWWTLC7XAgsoRpqUl6vUMYj3HVYSjSNAeyVx5EWmcekobeSr+WP4YAEljierLlz+o6CzKFLmA172dAXAHdJye39CEc2P1B8sLaaqJMttjx4bzBRH5afbqYG1wXSUNkoMIkn+UYIvqpxFn7o/Y9UT23JTQjiw/8fBSTyrfRlvLbKQxC6aplLSVdK+pa8rLFp1a4KbLWUSgKvFLiAbWXVZx5eqciGkL20l2yb+QLqDz9xJjpIOOGLQcNMi0Fz+etsjSnW8RvWUC1Li3EQ/VeD14/jUp4PTteX2TBVXMkuCDZNM36buS/JVGlA+UHcAXNF1xcmpi5qjssvVDI+hlF76pWW2k6QRzFNJIvYGMimoUjgLJmerAb5NFwwMPbU2lu+cbxC3i9nNMR/DTdp4vsXza2ovYO1kEYROYpTsneOSTUeFFxlPgdGHZwuVOxIIL64UEDmaw8bk9alxqZgxWNtyJDA7AqQDtKL7Boz0R739j4nfsY8M7oaZ50agq5RJ4ChtPKb1HjQmc4/LAU3sYeIzvh8akqjWroZ4vvalH4YuMrZf6hhOQ9D/WoYe9RFD538+9bbfu6OpD2B15PhoZJ7Ul+S3XP02hFrEYyOq9NrH46xXCWxyL+q4thGnBR7x0FTDZEBqVpcHa0AqggxAEYkF7k3+i71uE7k/a6OqjK4YOv+i92/+Hp/Rv86tvf15MQLP0sb1MYr8LxV8WLp3mkDAnSKMaDrevR62q5t2ODe6z6PLqIAndt5wKvCjjm+UYqfeUEa4Pqr5iPu3gPlTjyVx+yVbjp4Thk4X1COkVvPD0SwzByhaL0/3nYB2xrmiuJRJ4GRJ3WPo9bnvURR21+b66lp7taeI4G0ifuGZwPFauvWgs6G6hQuAu7+rf4tCxw91TIf9VlMSetVabz0PzxrcJdaBeaJZOjzeg71yns67IIL/bNKOKhDi4phQxrnXWQ5Go8NqNO9OF+TEpMy7xPyBtjGJLZNSHwgGP5XmJ45gzYm6ZKjGICRVpnUPvUN70ZQmZRKAdZsbLzbcAirCIxzAQEV5UiZBF3RA7s0r9dknFtzjH7DmMRlduPKgCXGwP3ygzpFpjBJJBLmccFiilEkQQRKsk9svxxs1jwSxbNUNo6c8Q56t2zxCuzmeinqk+dQyKTQmzBTELmNjhFBirhfb7spbVuqSvgF8GRjYLalHjhe4Bk6EkMdof+Uqw1leBM2FjX8EwzDXG45CCwVrhdlTpEwCa7mxEDJ0NmQvCO9auk0Bx/SpBS1ty1F85PTDW45KeLjAbW0+1FSGspFK7RJ/OzmHeV+GxLdNrFqi98+TMgks0iZJ6s4QSGYkA1j6qdHnSZkEtr6+tDOrN9pq91kH0MWxUa8szUz+VCmTwCZtCMPU0dWiUHA2qSwvuWP/V8rmZobKk+scCr/XaBsg1fflSXDMUyoPz5cyCdzSXEoDzfkYZw44dBEvEfJDU09G8IJNxJn9kUpFuc/Kg5DK2XkyHBOyikPXE/u5+GVpQ7Uv2jwV4PdfSgHO+eJvIdR+kUIM6rxaOnqOOSEF8NtSJoHhVaDygdweOioRo9+RNr+oy6QAfZehEDJr+p+JWjnv29sJfI2USdDTdMorGa+SMgla2yefxaxCreejPrfY5IWBuWM/4qegN+X0GecxbmuwyJUZWz5ahy31UbnwKQnnfwh9FwSVstH6RXv3jTfeeOONN95444033iiK/wDpWyMpdIpCEgAAAABJRU5ErkJggg==;" parent="1" vertex="1">
          <mxGeometry x="784" y="75" width="55" height="55" as="geometry" />
        </mxCell>
        <mxCell id="Rh9i2QMeJr0mw_CJxQJY-5" value="&lt;font style=&quot;font-size: 10px&quot;&gt;Release&lt;/font&gt;" style="rounded=0;whiteSpace=wrap;html=1;" vertex="1" parent="1">
          <mxGeometry x="123" y="567" width="73.5" height="26" as="geometry" />
        </mxCell>
        <mxCell id="Rh9i2QMeJr0mw_CJxQJY-6" value="" style="endArrow=classic;html=1;exitX=0.5;exitY=0.5;exitDx=0;exitDy=0;exitPerimeter=0;entryX=0.5;entryY=0;entryDx=0;entryDy=0;" edge="1" parent="1" target="Rh9i2QMeJr0mw_CJxQJY-5">
          <mxGeometry width="50" height="50" relative="1" as="geometry">
            <mxPoint x="65" y="550" as="sourcePoint" />
            <mxPoint x="610" y="676" as="targetPoint" />
            <Array as="points">
              <mxPoint x="160" y="550" />
            </Array>
          </mxGeometry>
        </mxCell>
        <mxCell id="Rh9i2QMeJr0mw_CJxQJY-7" value="" style="shape=image;imageAspect=0;aspect=fixed;verticalLabelPosition=bottom;verticalAlign=top;image=data:image/png,iVBORw0KGgoAAAANSUhEUgAAAOEAAADhCAMAAAAJbSJIAAAA/1BMVEX////pOCfpNyfx7ey0VEu5ravrNybcKxbsNCLsNyX4+fn7/f309fXpNCHvNiTh3t7Z09LiNSPeNiXd2tq1XlXFNyfBsK7l6OnRQzfJT0XyNiS+nJrp5ubKST7tMR3Z0M/BfHbVNyevbGWqkpDzLhagXli3dG/SPjG4bWfJxMS2trbJUUfbMR/HRDi3e3XLtLKmmJiySkPNvr3ZOiqnTUK/amOnVErJY1vFqafLLxyhd3W7OCmpYlu6j4y+gHurlZK8Tka8YVnXwL66ko6kamS2pKSyQDKpiIW2WVPDaGC6KBTGjIijVk3kFADYSj6bbWmtfHm3OzDFmJShg4DRGwC+kv3EAAASkUlEQVR4nO1dC1vUOhNmAyfbstvuDQQXKCIoIItyEQWPChzFc9Hv+1DP//8tX6/JzGQSurBXnx19oO1227yZybwzk7TMzc1kJjOZyUxmMpOZzGQmM5nJTGYyk5n0JYvN7TfLvd7F8buT+rjbMgxZbN7+HnV93w/D6OL9yeK42zNwqZ9fBaGsZOJHyx/Wx92iAcv82qpXKUSIit/+2Bh3mwYq9bXVIEWWA0wgPumMu1UDlPraLtBgbqntJ7+OFmtru0EFisggPv9lIF5ueVp3WvzW05VxN20wctTzKbhMZPDsVyDG2nY1BLaJNbnzbPq1WF879SvCNNFCi0+nfSxmXlTYdChka8rdTUz0AaM+oTemnBfrMJIB0CDoqeZFFMmkuIQQxEyFmGItxkTvFZCKkSiQiRaGurc/7rbeT/4svCiAl+9ilLK18du4G3sfOerBMQis07DUigyXX4y7uX3L4nYvFALAybQptFb1+Iw3usvTpsX6p9OQelGhAALMxW64+qg27kb3JY8ITVRygNjLwN3g8aupqmw0z1pSmDDIzwrQopw2iJ29ljThsQosJDiYMohPI0kxqCqGPgK2Ey1O1VhsLAUSY2OHIVRo8PjRuFvdlzS+RZIFYhfvcLpIo7GUQnSBo59NG/U3UndjQQjdqT5n0qm/TuoujbOWbzFSyiXFsfDw0QR71Pm1W1Ksj0mjKEOR3FBgYtTBjrcxuaQxv7ZbpcX6JuHFu0VOLi/W13aDsPeSVM86e5o0kGHaQ55JjW6SjF7GuR6F2Ngzqf8OmUzqX1zbTUec3zYgflOkQb0LigGE8qsy2JhA6t/e8or5CAPimwgYKudEKdhJpP6jql+0koG4VEAsF9rEEm5NFvUvXvaymkymxd5LQhoN7W6ESvBNTwOrVpNF/fW1rRAGKRxExYsMsooagaCGE1P/xLgbNAFa4bXYOTN40W6x2SfBxFB/XvhFzTYhNjMtSmlmjeCrWqHx0UnhxXwRAgnK/N5zSv1nrdDzglYr8EIcAzBBa/p/QqKbxVSDpu35VTO6ubg6+/j16/Prw17ko7Otk28TQP2L+Rw9qdVXWNL4o7k+Pz+/vr65tnThSS6/IAcmgfq3Tz3QOBS3mBCVPhbXzxdiAhXw/KyYqnxqfnTs1H/UU4Vf09JMiEAaL3uh8Q19KQVxvNSflO4NgACpX3XM8NYvs0CWrzPqre7W+LSYET1ma5EbXA6x99G+fq3+6dSZVxVeaHzUnxB9PhcBA5rCxFLAMS/atbjyMiZHBUcVU/M5Rx3CjSvrnwc0wVhX3r54LNq12HwcGhcgikxlPNSPIplcjVzE6RtZP5DtOOcwBrCZRI6F+ukiBOT4kYRVu6do/G7zp+RSo6f+2ie4GE+oUBLsK29z4Zil/xxxyocXzXdGTv2XW545KWGEKOl+99hhYDdVSU63STBa6j/i2ZoWP9Nf0WfHhZoXMEDlTT0/MMqC/2KyGE9gz0DbJtTSmehPx6XWv4SVnCLo1XKr0Es4Rkf9MdH7CAncgLleFgFEN45rzR93jSUMKGzIL5Juj4r6zYxet4eaVvLTiXD9uEtVR0yh+Hh01G9djMfFl+IuK218Nwe0AOQq1KFkayRz/XUVyRjrfogyigNOT7N5EWK9CaxDrFYxAogFQLquiZO8cd1jx1Lny4wtRJkLZlo8GO5YTBbjcbVdPgPK9kIX47/bkeo7aDERAzBT75Cpf3vLR3ELaZhuStae7KPop/2CzeOoOE3HDCo7YTpSiKFSv4XojX7H0MMNx/rRGCIzM2W12OSD4VE/zOi1svQmidt0PuzdOrxD56+84C+U4lSuCK8F0uJhFfzTVfewNw2lke5WRuY7V+U1r6UUFBLZIx8Mh/rr+fwgxWH5jSS42ne0aPPvlnllu52m1D8E0phnIxl6Z1sTg7eORyprm2dtn0dkpZDBQ6yTyjbCoANI3TLsYWXr6tye6deaX7csoQ0vYvDL/Or06bM7xFznHKx+dDz9u/KJemk3/8f9N9isfzExURiOES+afyLQMaF3kk2/teFg/vqHXqgyCnhJxviz/4Mt+Cel+7ujNKOfsfiwXjP/G6nApRANijf2AeDYLAZGGkc9X/C1FMB62Y6jHyRC+O0rsdkEItcxjj4bFPXXUqJnEOp5FL6TAccl3YARLlRviesBibXxFAqGqT4dDPXXbpIxaOlZdjjmP5HaBdXhQrS1RrS48rVteRTTSreha2yXBbh/Zcy/m9rUXkhXNfSB7CSC0PMeU45s6rl+8/khAS6qmiBbew99ZqoWBxywLG3GVdplQvtRxzV4ijCOdE5q9GZZAMdYjAAXFPoeD37yLQNYzo8SQ0K7HMI4YT84obe7Npb5oZ7Sg7/47IFPvsV3bEk2HLY6Tbb7UzF0WJHRYzqMmn9F0nIlLjivPPT5xQSgE4/5GRMAWBHG4eUVhdjJ80VVKDUHI+mBhzzX31wICoDg8pQOcCzDdoZgESZHgwNDi0nWnyy7kRXi4iylrwc819859uCgKDEYQVACXGq+z+nQArEbRdVqNYq69qwKXF7c97n+5vEOuG6J2hq6tdEk1kpjiR4TjzrXebb08+jFixdH7xZOfZ88W2QaUkK193quf3+BfUiZwwQ+Zn85EQrvgEJUK/5X9l9uVIzlDMzt7/Fcv/bbwj4A3JgpdnYcJq3zrux5VX3/DD/ISH1Nbqx9P9dfK7youpT1tQjFKebH5IhFh2mtfs2x7ubTlmfvNyWxR+2HF2tM6cShR2aH6Q4rwliLW7d2V1GsabH3XQ6xH15smotB+8sPmaTDgTCOoHsf7FqM8yrKG1yr/LZj7Q6R+ZcMQEq4KC7GRRrjeRg+LlWfxKeHpw6I63uBtk0wM0s63W9/Klu6eQRnQItGAECCqZXioAAGNsU/qw7Ts30HxNrJIVx3I9R/oYCn7QuXT2yXwFL/FlUwBDo5yFsssExMINmGjS3y/y6I8x8DGK0qVLQF0edySnxxYU1EKQane8s/Kg4buQW5mnfQtDbpj9UQXY5+N7ezcLlcQvwZFg4F3uBCX2w6+HOwQo3RIcwFZeuj3Z82/vbw3ZET0CPHOd+s5R8JDcDwMDbhToKG5PCl2UA8t9c/61+pO6X3zLa630oh/A9ZSOJuODyRPd1mpeBSKcL/OtzE4vmpJAPDuF+yE/5eDiEPi2u1dqx6eIgKoZb8BDNqEyDbEoGRDQOpvdr1i4WZAnayHhyZR+6VQ+jwGyzM4pbI8aCGsAjxCYHD0czNvVr1BRq2AibI6n7hRSmE/2CTLzsQxR0bJkJkdk4dzr3a9elFud3wSymE/wukAYn6SQdA5ojNl8LPneOwdn7Kehra/c6VLVr2eT4s5VArSjN40YETYXqCv3tub1L9R5usYaTzd/ktLkshrL+P2EbTTfNzwlIVvWBbOBBmbZVtOpMBJOfDiu48XWnWLkd0v5RML06WmflK4wjTAU418zGNluCt3dVsboQlbEhWP5QDGKcrbfxYUj9IKWorQtwnIjFTG+XXf/Qk04ck35HeX6UzRPg8pNF6BrW2F4GPQpy2KoY6JTizNXDzynw9qAD3S28lgw1a8HGIToGNy5Id8EPgcyhpcOMQMahvzEYVJxephaCdAje9jfM+ZvZrm9kLLcxpktJVxXzw6x6wZ8CFBEZhMWtMNrEoKpbGZIeDjfO+iqa15hnoN0H1gfcgFDjRhs+15xbqf/CWY/2bVQ/cqGgUGZHBYX8AY2kueeiqhu5KKlOdxlopOTkw5jHmar/tepYOBofC3Zv+F5903uxUKiq0phaCXYrqY2GcpKZYnDl+3osy3DrCqli5bSOiyM9VbjT7enfLtdTaKiuv8TMVtCeNWQpoO+bGHTFNfsGw+vpmvRiNi43LL8nztMQdKJTFMe++q/g7S4FfAfph2669Ic2Z1M/suMH4Ammj+KLs9o5vz/ebjc2T88/fq10J8esyHryXt3ovDSaSkobSDkZEkSCHBDpEHXBnT6AfZRj1lr9/+b5cjUJJFYiMOvtCcHhvgCnEbGKEDXQBwJwRXXzFZE/aNxIalX7YDX1NycSXol7pjwep1BKIpSiQoRHyNXvkzXQHvTo8is8IHgQwgygtS50E/slNd8OW23xpoX9736BrwyAiMdE+iZ6R5pmwJJ8cbILrboQ8IouYt/QOH6bBDOIS49hJs9xNtI3DPrBZbuSv3oPoTem83jHgEGI3iYT4BoYtzDYL7ILBfcyOSM/tXjzAi0JJqF/gO8JxYeJWgRAMCvj8sIiYdOdgr6KvAOoF+Snh4B7XS54Y6NeeDO/KWykimAID7DHGf+U9FuwOSIOJcFOm4KbAXcBpOBwiMBVhru1kpHMmkp3uHd4M8pEEAyJvpkwsoyT8FyE0nsTnvydMY8gkGIQXBZKkxPwrHmyIoAIq6Vz9Nag0zb+v4lUkdw0CShQD4EEXRGc74ABSzZLBwVoH9PniyfOtsmvHgf9Sx7z+E967IWZZv8nmGI3BHOlv2TvbxC2qra8dovIS/0YG6GPBB8MAOGen/rtFtpjFLvXzVYYTjTtwdnyvjL6MpNQv6O1IlxcuFfZ+cM2t5qndnOYVJlgLMmNSsJWR58CI3pSV1/bXWGJmRp7BM9Yf5hD/lBJ/C/USRqgrJOHFEB+x7MA3WDsFNFK2bV2+shCCOpD1AmhPPCCjLwUx86i0PYimqSF3F6zLSH6roiJF+gu5FEzylfQBqqECZKMbOz1mfjSyT3mtfOlS3RmCL//QhLeEbBaFDUdjkNcJlx2LBt/RiTzbxQqAw6EJJJr6DW2pLZiBiO4bR/j4qHrHKhJwTAwjkmEloX4SCAtBN4rPhYzeOa7VWQ7Jt6wBakL0qyMBmHjUvCQvtEEySsgPRtuOS60fh/BL4GoMznAwGX0piDH1k4UelmEZO7+73t5i9Awl+SJFDrcGmi65ZeVNpN18bkNCRTJ4it3hSjOEMKNUEVFFXa/oyAFm9GWksRTQx6/hZJ62M+F8aUT29hZhN0x9zBtkRl9GMl50eAi1Fz1zXGbTvtITGawMBpvRl5G04O/IMJQRd784nva45NnCQOhtOFYuDklq+d8E0ENONQmnCbJnf1q3li/dESYmZBMj4kHautxQ73itTGymt9buby6HXOlc91W6KccDcC6jfuU/YZuE9qjxfrhqW5NX+xnpl35oNwrnW5OtkRG9KZ0lzWYCrI4kSYH/0tLA/V3PqBaa0VG4O8a/WpJSP2wftdW0nf4p7wcb1x6N2Ki5inSOfpzvg1553bX+TQB9xGNfUNN4GpjfNYgxvBjznxBQWT9lwyLUseYEnect+s5ERp1DzujLSJL1M4MPVJfSrGD3RwOpsX5yDf7Gjg4+VV/la9VWR8+DhuRz/bbwO8cZtv9+1annra2tbH7dKDPZM4KMvoygVyFgUwUiva23P15tNjud5sn5k42WsfqyYnodb1w8SKQGChvIjwIVJuIH7dWDt7Fs7LbSd85zflSRR2zmYyN6Q2oF9TNtRail7wWxeJJO8rCUMYqaTGlpLumKEkyM0V8DZrWFiELArXB3IsZgIY03O3mMhlgCjLOiJJ/vgTlrpWqt0PjjMRO9KWiZX2mxKVcMt3R/P+m8T7J+znUIbbM5KFKRM1euDbt0fz/pnLXoC9YJRyIUoPiPTbmSvuRqAojelKYJkQWKk2a6+jKRCSF6UwpeJApD1gg0haxT15THmPDeKXiuX5gWywjiDFFocEIBziWGKiUDR5DfaJNCnyiiN0VTP1WcLcxGqy+Tmsew5ugHJXqZH6UFB/kBIx3iHP2gpD/qp6hHXLq/n2RZPxxnkC0MRaID/qhL9/eTnBcFcZQQrqZJNf6SX95DVt2PUpg5DZvSdDEx3vAHvBhveJLzopHwi+KpBsFinWgeJFJD0Q2vwsKCi305KSWLcqIf7oOoBPhhZPVDWow3PMmW+TmSe/LhxBO9KdnDfRVjzJGwO/8/cRl9GaEP99EtoEI5gRl9GUmoX5O9tXIohKxMCw9S6Zy1mOf6dUaYI/Rb15P195v7kOaZ/d3HSvz2nuu9LRMuzSdt8NYVxrOKWIN7zelzMlo6CKJZskne5jzFGkyk8bxYyYhS4gKpDKYdIJzpBUAVyuD9Q9/HPQGy8m3H+n6gnTcPexv3hMjKs+ThPsbNSO/bPV9xPGmy8rSYJRawLCODpV9Cg4k0nrd9NHmR5rsPfyf+BEkCMUOo1p7+WgAzXixeZFoAnGqiN6XxpA1frxX2pp8HqTQ+LKevuUhcTBgtf/hlnIyW+snn5SB5W34QLH92/GWkaZbF/Z/H//7n3+Of+9NWsJjJTGYyk5nMZCYzmclMZjKTmcxkJuOX/wNt9TyrkFh/mwAAAABJRU5ErkJggg==;" vertex="1" parent="1">
          <mxGeometry x="129.75" y="614" width="60" height="60" as="geometry" />
        </mxCell>
        <mxCell id="Rh9i2QMeJr0mw_CJxQJY-8" value="Master&lt;br&gt;branch" style="text;html=1;strokeColor=none;fillColor=none;align=center;verticalAlign=middle;whiteSpace=wrap;rounded=0;" vertex="1" parent="1">
          <mxGeometry x="139.75" y="670" width="40" height="20" as="geometry" />
        </mxCell>
        <mxCell id="Rh9i2QMeJr0mw_CJxQJY-9" value="" style="endArrow=classic;html=1;exitX=0.5;exitY=1;exitDx=0;exitDy=0;" edge="1" parent="1" source="Rh9i2QMeJr0mw_CJxQJY-5">
          <mxGeometry width="50" height="50" relative="1" as="geometry">
            <mxPoint x="560" y="726" as="sourcePoint" />
            <mxPoint x="160" y="616" as="targetPoint" />
          </mxGeometry>
        </mxCell>
        <mxCell id="Rh9i2QMeJr0mw_CJxQJY-10" value="registry&lt;br&gt;&amp;lt;test&amp;gt;" style="text;html=1;strokeColor=none;fillColor=none;align=center;verticalAlign=middle;whiteSpace=wrap;rounded=0;" vertex="1" parent="1">
          <mxGeometry x="565" y="284" width="40" height="20" as="geometry" />
        </mxCell>
        <mxCell id="Rh9i2QMeJr0mw_CJxQJY-11" value="" style="shape=image;imageAspect=0;aspect=fixed;verticalLabelPosition=bottom;verticalAlign=top;image=data:image/png,iVBORw0KGgoAAAANSUhEUgAAAOEAAADhCAMAAAAJbSJIAAAAbFBMVEX///8nep8gd51Yl7QAb5hpnbj7/f4Ncpqxy9moxdQYdZsAc5u71N9kmrUoe6Dp8fXg7fI3hKaPtsowf6Lz+PqKsMXS4+rD1+KgwdJRj63l7vN1pb2WucuCrMLQ3+dJi6tvpL18p74AY5FNk7GLYvKgAAAJL0lEQVR4nO2da4OyrBaGRzxgVJ5Hs1Jrz///j1tTYFH2qKkjw8v10Ui55bTAxeLrS6PRaDQajUaj0Wg0Go1Go9FoNBqNRqPRaLbBybJk6zysim9inJ+3zsWaXLBhkOPWuViRbG/UYHfrfKxHjhqFKN46H6uRGi1WunVO1uJEWoXkunVO1uIHtQpR7mydlZXAXS01iKJjYmAZijfEjJWhquPFjtfS09Z5WYcrYQq/t87LOkRcYbF1Xtbhmyu8b52XSSRju/6CKUSX0ffefuRM7mEeBaOSTi5D/5pXtj8nd0tQYITI/nvMq75ObIcnUt8bmzMzOJvwYYmRcEQxnib1pX7eDi7W/DzOIom7luWVg2ndKeNhEHdGrLWxheeEtPPwsqG0wKY5DKVNqUDD2rqvyWlOEBoqxTO3S4fqNCvB+r5L5fRT+DCO9kP5Zkm9gXLxgUB7sax+SMmybaBwoMnYaGSuWcWom+xghV6bpAK5ubwpm8QP3GtxYW02v7ql/34w5/XCMOLNx0MwytU9yK4nQXq6556FCQGlTbBFKvua9YrMLH5HMtb6WRGfl2HdwJ6a4tm9oVocTMJl1jqxuXuZDCchSE5kmCvDOiWs9vquSfrFAZmEhCfxtRTwfrdflfKGBIogbFQMLuGQPCoyPoLqmsLfpChCaI01/Wl7LbNBsxsWiXOX9sM2LEJZ5pGw4VhN716aeFTxQY1hu3ZTCi9GljW5FMhB5ldqWhP1tRrj5uXAIsSDhuCvccIgpzevR9+j46wL1os9tMe4twdCxA4SOFLIUkdrnBtsiq85J3FuR24WBOeaICjd6yUP0WtNrvscYD+YW9vcEGjZPGWakJ9T2fNR1C93tvHSHfHboDFTzl/ER30SEd5fDv/qLbJvz+rvc5EkAwUHzHdY8e1Nd7AzdLJL37iCyPCM+rcJclEiQrdyXEMKivilssbyCax7GyToMyfUsnMhVnJUyVZFa5wjLAccThzKgiMcQ1Eln7+GU8HxgvTNogbIQjioItkKMTGhNWl+1M87BRggEZJrrEhuGOQt+nSkPsTSDod3INCYYUymoK6jShazu+Z7z2vovHUVx+bvSiKrzYW5mvviwQxfhjWaBwEwlu35NQssikjyuT/htgw5LtF0gEQiRW8T8e8t1TINp2B3lMK16MB6mcEl79Hw2SaOFrrlDFxqNaN4sSrl5PxjiAQW+PnSrkigBT8wBHRtC2Ep+tODR5auT1lbiMRzJWiINUmBSb7sLZv+C1mFPGZNufR0p56r4CkzzPVZ/GWn3k6OCroe23831GikwuEMXnbeMnS74QeO/ft0jjblBtv/jl0/snl9ydM+caQ2j/PN0phvuhPwr5c1reT2esvZWKhDnMFHmF632ETuwNI+Y1FPL+dI2LU3pixiKUj4XFDgCdYHS3r98EWKUFDIpwBcIVgSFCFcIZtQvlPogb89L/vYfMLd6/rx5xSim/hTEPPf1FBoYLGa7obcd/6gQnGxBn6oVEQhEmYtqfB1RA2FBoaJrjIpbDwSANanCgmcW0PHlq0VIvsg4FI1UxXC5f3Ugr9srPCtt/pUhdCtphA+FiujkDvcJqHwgzIKjZgukTz1Y+ooZJ+Ub6IzhAIKu0qJqvbyORYur6IwdjMOf6O9CgsfAqaHoxUis3tE5z3UbdHE1HJbQ2Hjo8YARn7feOjFAPAVaUIZenRluK0PXcAC+7qmwn6GbRrrI4UWXd5/bNDovIcJqzxKKLy3xWU1Q2Lnixw7lToK8aFs7/dwNe22yd1YfhRQSE7UrTNM6HZ+Un5R000FhRG102rLre1fais1UEnh/YtW03vXk9b1taTPUEAhsp1ugyOqut2LVsqfsYpCbHEGxkMCklr/+0zhT8Isp9aeaXwXdmsqDLOUcxmwaRIIv9sUhbyDAaLYPF8Bu9TwfB7Vpr1rAna9q6AQ1c87QMfOZiP/XSWFe7/ZTA3cyhrnE2bxq6AQN8+78rWfxzTKVk4hX8gnj+f8KYVvPDhEhaxaovbxsihER3cnQHeXAIXkKqY5OL0K6cbgbquXLAoNhEXoJNiBu7fEJHRl9Emh0zl4dt7t0ih8xutRKILyfoWdFUNXFVVUmDyeRKNpqKjwMcgj+sFbSYWlhbFFoy0qqfCr+bbDdnsrqRCygkLu3zHD2wQZTCF5k4LQ0YL7k/QqpM9dztvkx6QIkbd27PoPc90pedoXOgPGKd6muHQK2YWfPoXR62M1Go1GDRbeZnaQYk8X4Hy0Fg0rmxFPrpGg2fyEFgy1cg4RwhJtJ3EuzSZstGDcscfOLjJ1T/9qZKi1T9GLO++ndBsQkVVIsalkx3bRk+MyGeKrh3ihO87jzBds8W2JpgMCa+0l2H341cxODS5x/jsH/pUy7CB9AKJEza9WEdjbL89hJhew+zqfVVGdb7AaOe9WiwIjt5Bwxq5BH0TUkiswhp+DnHkfG3CpEAJGjl6G4kPv5P27MKYDnPYwdp9cApuY0PA75ieBY9MKLmItaQMuhC8EwiL2xNbofwuR7D4JUrQ6mQEhXjHBTE12oRjtC4WyVVIQJIBrjEZqdHbVS4BB+eK19cXcI9ge0ZqCiPSFApUt5t6buImIhNE/w9IFu+pdJFe5xkMh9uWTRlTds3OPdZKcyyj3nqN8CiHDZJhYdAjxS1+bFEbVJXLLc5I0m3eTxE8P17sZv8aIRqiAcaDliV8qxqDti0D7CNBq7b04DGOPWFZ/iNYmUp+cMWif4ghnr13jGIjXDIJSxhF+iQXd1/0PgePvVo6EsaD74nkndR85QSPCYURdaySM590fkz3J8sGA7PRPJDwB40C6mOzv4+qn19AajjqPUSF2KNLF1f/n2QhpZJI3Bwc81O2r4nUaItnZCEPnWzhntzBD0gwPSBBH4vxyCno7S7nOtxhzRolzTrPrxax4tm+Rm/areyDVGSVTzplh+R46TFaqc2aUPytI/fOe1D+zS/1z1/4DZ+epf/6h+mdYTuDPnkM6GvXPklX/PGD1z3RW/1xu9c9W/+K1dGtLbC3oblApApGvAjVMyXU47d8kVb0ZsvArQ1P8P0y2V3mseHDBUrk6rYBvYpzLd5bTkjhZpupYqNFoNBqNRqPRaDQajUaj0Wg0Go1Go9FopOf/hjCYw0UmuawAAAAASUVORK5CYII=;" vertex="1" parent="1">
          <mxGeometry x="595" y="602.5" width="50" height="50" as="geometry" />
        </mxCell>
        <mxCell id="Rh9i2QMeJr0mw_CJxQJY-12" value="" style="shape=image;imageAspect=0;aspect=fixed;verticalLabelPosition=bottom;verticalAlign=top;image=data:image/jpeg,/9j/4AAQSkZJRgABAQAAAQABAAD/2wCEAAkGBxETEhUTExMVFRUVGRUWGRUWFxcVGBcVGBcXFhsVFxgYHCghGBomGxgXITEiJikrMS4uGB80OTQuOCgtLisBCgoKDg0OGxAQGzAlHyUtLy0tKy0tLS0tLS0tMC0vLS0tLS0tLS0tLS0tLS8tLS0tLS0tLS0tLS0tLS0tLS0tLf/AABEIANQA7gMBIgACEQEDEQH/xAAcAAEAAgMBAQEAAAAAAAAAAAAABgcDBAUBAgj/xABIEAABAwIBCAUGCgkDBQAAAAABAAIDBBEhBQYHEjFBUWETInGBkTJCUlNioRQVIzNykrGywdEWQ1Rjc5PC0vCis+EXNYKE8f/EABoBAQACAwEAAAAAAAAAAAAAAAABAgMEBQb/xAA5EQACAQIDBAUJBwUAAAAAAAAAAQIDEQQhMRJBUWEFEyKh0SMyUnGRscHS8BRygZKio+FCQ1Nik//aAAwDAQACEQMRAD8AvFERAEREAREQBERAEREAREQBERAEREAREQBERAEREAREQBERAEREAREQBERAEREAREQBERAEREAREQBERAEWN0rRgXAdpCdMz0m+IQGRFjbK07CD2EFZEAREQBERAEREAREQBERAEREAREQBERAEREAREQBERAEWvLWRMNnSMaeDnAH3lfPxlB66P67fzQG0i1fjKD10f12/mnxlB66P67fzQXKiz3jDsp1DXF1hHCQGuLcSI2/iuPFSRn1u0D5w72Rv9H95/pXazseH5TqSwhw6OLFpuMOi4Lm08LrDqny2bv3NOPwPguph6alTT2e6553HV5RxDW3bldrd6zuaMRatIBdZ0DX2c4usX2O1W2qn0aNIrrHAiliw7grYWhXVqjR2cJJyoRbd8giIsRshERAEREAREQBERAEREAREQBERAEREAREQBFo1mVaeIhss8UZIuA+RjCRxAcdiw/pJQ/tdN/Oj/uQFY6T42mv6wuBAHWvbeVFn0sXW6mzW84+a15/pUl0gVUc1cXRPZIPg9rscHi99l2nauFJC7rYHz93sy/3BdLDQvTTtf8L/AAZ57pGts12tu2Wm018TFS0cZl1S3Do3PtrHyhKxl79hK2PgEHq+PnO4A8eaUTD09rY9C/D/ANiNbjYH28k7D91q2OqVvN7k/gan2l3zqP8AM/HvOXJTMbLZrSB0YdYOdtMpbtuvY2g8fKA8t+9sTvS9tZKiM9Na2PRMwt++KRQus3qnym/7cA/pd4KFT/17l4CeId86j09J8uZJNFrQK11vOga7aT5VjtKt9U3o7rIoawmaRkY+Dxi8jmsF7DC7jtVofpJQ/tdN/Oj/ALly66tUaPR4OV6EHfdxv35nURaNFlWnmJEU0UhGJEcjXkDiQ0my3liNkKsNIOVpZqkUcUjmMiAkkc02Jk2tFxwwNuOO4Kz1S7Xl1RVvO0zObfk0WC2cJTVSqk9DR6Rryo4eUo66EtzHztfI/wCCVZHTAdSTYJW/3fap2qRyrCS0SMNpIj0jHDaCMbe5W3m5lMVNNFOPPaCRwcMHDxBTFUOqnlo9COj8X9op3fnLXxOmiItY3wiIgCIiAIiIAiIgCIiAIsFVUsjaXyPaxo2ucQ0DvK0v0iov2qD+az80BXGlpoNXESAdWCR1j7N3KIyQsGt8mzq6+53m9J7XsBSjSZWRTVTDFIyQdBKy7HBwub4XB2qOTN8rFuPS72+cJbfeaulhVenp7jz/AElNxr22msuLXHmt5iigZr4sZbo3m1nWu3Utv5rbkp4hrfIx9XX3HzWyH0vYCwxAa5Fxcxyec32VuyxnHZ+s89u9kwG/2h4rOoLPLuXgarrSUV23o/6nxfM0JqWPpQ0RsA6J7rWNtYTNZf6q+fg8fq2eB4A8Vnn+eA1h8y/zh65pXyG4bW7/ADm+i3mo2FuS9i8COunfOb/M+fMxU1MzpcY2EdG11rG2sZdS/gtqKmiNvkY/KA2HeyF/pfvCsVKPliLj5tm8euutuGM4bPKYfKbujgbx4sd4KYwVtO5eAlWnl23p6T8TmugZr+QyxjifaxsC8XK9ELMPk2eDvZ9r2lkc3rWuLiKEbW7Q3FGs2Yt8W+x+ShRXBexCpVldXm9F/U+C5kt0RACpmsLAwxOsPasVbCqHRjWxQ1MxlkZGDDEAXuDQSLXAJOKsr9IqL9qg/ms/NcusvKS9bPR4R+RhfgvcdRU1XQmGvqojhrP6ZvNrsCfGynuUM/cnRfrxIdzYgZCewt6viVAc48qvrp45o4TAIwR0kh6z2ncWjv8AHas2Eco1U4q5g6SVOVBxnJLhfivrdnyPuTYewriQ0soYI+nlDBezGPc1guSTZoNtpW9V1bRtc0D2ja571qPr4h57O4633V2akKUn27ZczytGtiIJqjfPWyvp+D4nzFTPZjHNPGeLZHDHuKl2Yuctc+qFLI4TssXGQ4OY0cSNu4WPFRihiqKp2pSxOff9Y4arG8yT/nJWpmdmwyiiIvryvxkk4ngODQuZjJULWprPitDv9F08ZdyryduD18V9ab5EiIuedoIiIAiIgCIiALA2dheWBw12gEtviAb2NuBsfBcrKuUK0C1PR659KSWNjRzs0ku7MFXlVm1lx9QarqtlNhdkrGgNGxoF9nJTYq2S3Sw62Tnji+If6xtVb0+TYSRdjVIc6hll1FIyriiMbdVzpGubrjVcCMGmx8FEm5RmwIZH4k/iuhgXFKW0r6br8eRxel41JOGxLZ1veWzw5q/wOx8UwerZ4L34qg9Wz6q4NS6qftOzGzSGj3Lbp8oVLcHBju02PiFuqcG7Om/y/wAHOlTqKKarpvh1ni/A6fxVB6tn1U+KYPVM+qtUZUk9U3+YP7VjflOfdFH3u1vyV70vR/S/AxLr3/c/cXzG8clU/q2fVXjcmU5FxGwjsXDq31Ugs5wtwa4ALyidUxYNIt6LiCP+Fh6yO1bqnb7q9xn6uexf7Qr8Nt29t/hbmd74pg9WzwT4pg9Uz6q02ZVm3xM7n6v4FfMuVJz5MUfe7W/JZr0vR/S/AwLr726z9xfNfuNx2S6cbY4xfAYb19fFUHq2fVUdqoqiQ3cbndiAB2Dctqnq6tuF2OHtkH33usSqRvnSdvur3WM8qclFbOITe9bbXsdzr/FMHq2eC9+KYPVs8FptyrNvjYex5H4FH5Vk9Uwdsl/6VlvT9H9L+U1vLf5F/wBI/MdKKljZ5LWDuCxTz3wGz7Vwq2sqJBY6rRwY78brBFUTtsNtyGgHrEk7AN6r9oUX5rtxsXeBlUWVSLk921fvzz5EqzSyQ2srbPaHQwN1ng7HPdg1p47CexpVmQZqUDDdtLCD9AKIZrUOVaKExx0ULi5xe57pgHOJ2XA4CwssuUznFKC1scMIPq3tv9ZxJHdZcWrUdSbkz1OHoxoUo01u+u/UndNJHdzGavUsC1tuqTiAQNhstlVTmzkTLdE9zmRxyCQ3ex8resfSve4dzViZOrJ326WmdEd9pI5G9xBBP1VjaM6dzpIiKCQiIgCIiAIiIAiIgNHLFEJoJYj+sY5veRh71QcDS0FjsHMJjI4Fpt9i/RSqPSVkIwVHwpg+SnI17bGy8eQd9t+K2sJVUKmejyOf0lh3Vo5arMjkbrhfa1GTAec36zVnEzfSb9Zq7aa4nk3TmtzMi+4YS5wa0XJNgOa1XVcYNi9t+1blHUOjka8xyC2PXa5msNhtflvCo6kdE1fgXVGa7Uk1HK7s9PxM0mTyIzI1zJGNdqOLDfVdhgfEY81qLNTxQQtkERkcZAGHWsA1ms15AAPWcSxuOGA5rCq0HNxvNZl8XGjGpai7qwREWY1gi+HSBYnSEpclJmV8llgc66LxzgBc7FUuo8A42Fypno2zaMrxWzDqN+ZYfOd6w8hu547loZmZourHCaYFtM03DdhmI+xnP/6rfjjDQGtAAAAAGAAG4Lk4vE7fYjp7z0vR2BdLylTzvd/JkREWidYIiIAiIgCIiAIiIAiIgCIiALUyhQxzxuilaHMeLEf5sK20QFRy5KioJehq6eKSBxPRVRiaTjjqSm20f5ykMWQaIgOFNTkHEHo2OBHEYWIUzrKSOVhjkYHscLFrhcFQaozTq6Ql1A/pItpppT/tvOzvsskZLeYJU3qjt0rI4xZkbGgbmNa33ALQzooRUQ9UfKM6zefEd/2rlR52xtdqVUclNJwkabdoIGI5rtUuUoJPm5Y3/Re0nwBWSMnGSktxr1KcZxcJaMq8vAwN7heGUKdZw5ttmu+OzZN/B3bwPNQeso5InasjS089/MHeF16VeNRZa8DzeIwc6D7WnH60MZlXyXEr5KxvqGDzm9x1vurJKSjqzDCm5eam/UrmVeLLQUdRObQU8snMNIZ3vPVHeVLclaNaiSxqZRE31cXWd2F2wd11r1MZSjo7+o36PRtepqrLn4ELDyXBjGl73GwY0FzieFgp7mvo8JLZa6xtiIAbgfTI29gU1yHm9S0jbQxhp2F5xe7tcce5ddc2tip1MtFwO3hej6dDPWXF/WXv5mONgAAAAAwAGAA4ALIiLWN8IiIAiIgCIiAIiIAiIgCIiAIiIAiKoNI+XaqPKIZHM9jWNiIa02FziSRv71KVyJOyLfReBeqCTBU00cg1ZGNe3g4Bw8Co9XZg5Nl204aeLCW/YpQiAhJ0a0Y8iSdnISnZwT/prSHy5Kh3C8hwU2RW2nxKdXHgiIQ6N8mt/VOd9J7iuxR5s0UXkU8Q56ocfF1110VS54AvVANLmUpoYIRFI6PXeQ4tNiQGk2uMdq7+YdZJNQQSSOLnkOBcdp1XuaCedgFNsiL52JAiIoJCIiAIiIAiIgCIiAIiIAiIgCIiA5WX8vQUcfSTOsNjWjFzzwaN6rOv0rVLnfIxRxt3B13uPbsHguTnHUy5SykY2nDXMUYOxrQbF3uJKtrN/NilpIw1kbS63WkcAXOPEk7ByGAVskil3LQrqg0rVTXfLRRyN3ht2OHYcR4hcHPTK0VXWdPFfVc2IWcLEEYFpHEHhgrky/mtS1bC2SNodbqyNAD2niDv7CqIyrk19NUvgf5UbwLjYQbEOHItIPepVik00sz9HSyta0ucQGgXJJsABvJVa5f0qBriykjDwMOlkuAfotGNuZI7F9aYcsuayOlYbB4L323tBsG9hNz3LPo7zKibCypqGB8kgDmNcLtYw4g23uIxvzUJWV2XbbdkRtmlKvBBLYSOBaRfvBU3zRz+hrCInt6GY7Gk3a/6DuPI+9SepybBI0sfExzTtBaCFTmf+a3wCVksBcInm7cbmORuNgeG8dhU5Mh7Ucy71Dc78/YaM9ExvTTb2g2az6buPIe5efpYfig1mHSBmpy6bW6O/ZrG6gGj7Nv4fO+Se7ooyHPxxkkdchpPDAk93FQlxJctyM8mk7KDiXNETW8AwkDvJUizO0kPqJmU88TQ6Q2bJHsvYmzmns2g9yn8NBCxoY2NgaMAA0WstSLN+kbN07YI2yjzw0A9uG/ml0NlreQvTX8zT/xHfcK7WYVXHDkmGSVwYxokJcdg+VeuLpr+Zp/4jvuFV4K+pqY4KNgLmsuGRt85znOdrO4nrdgAUpXRDdpFh5N0jy1FdHDDAOhe4N61+k1d8hsbNA22xw3qfZRr4oI3SyvDGNxLj9nM8lHsx8z2UTNZ1nTvHWduaPQby4neoRpayy+WpFK09SLVuBvkcN/YCPFRa7yJu0rs2suaVpC4tpYg1uwPkxceYaMG99+5aFNpPr2OHSNjePRLSw25EKc5nZlQUkbXPY2Sci7nuF9UnzWA7APet3O+Shjp3Oq2MLDgG2Gs51sAzffnuS6ItK12zHmnnhT1wIbeOVou6JxubcWnzh/hAUmX55zXjlfXRmka4EP1gCdbVjvjruts1cFbOkjLbqWjOobSSkRtPC4Jc4dwPeQjjnYmMsrs0s6tI0FM4xQt6aUYE3tGw8C7a48h4rh5uaSKueqjidDGWvcGkMDtZoPnXudnNaWjXM6OqBqaga0bXFrWHY9w2udxaNlt5vwVtU9FFGAGRsbbAarQLDuR2WQV3mbKIiqXCIiAIiIAvCMF6iAo3MqURZXHSYfKTMx9J2sAryVR6UM1pI5TWwNJY7GTVvdjx+sw3HjuK9zf0puYwMqozIRgJGWDiPaacL8x4K7V8zGns5MttUTpCnbLlR4jxsYosN7wGgjxOr3Lu5e0puewspYywkW6R5F2/RA38ysGjPNSSWVtZMCI2nWZrbZH7n47Wg433lErZhvayRi0zRH4VGbYOhAB5hzr/aFaeb1SySlgey2qY2Wtus0AjuNx3LjaQM2vhtP1LdNHdzL4X4svz+0KtM1s8KnJ7nQvYXRgnWid1XMdvLSdh5HBRqiW7PMvZV3pmqmimhiv1nSh4HstY4E+LgsdRpZg1TqU8hfuDi0C/MglQqKOsyvV3OOzWdbqQx8P+NpKJESkmrI7sVO79HXG363X/wDETAXXX0K1LOgniv1xKJCPZcxrQfFjlNocjQtpvgureLU6MjiCLHvVKVtPV5Iq7tJBF9R5F2yx8Dx3XG49ylZh9mzL+RVpSaWotX5WneH2x1C0tJ5XIK+8g6SZKmsjhFOGxyHVB1iXjAnWOFtyrZlttHmmv5mn/iO+4VGtGWXaamnImY0GSzWzHzPZPBp4qS6a/maf+I77hUcbmSZ8mw1VOCZdV/SR7dcCR41m+0AALb7cVZaFHfayLrBVE54jocrve8dXpYpO1nUP4Edy7ujPPNzXso5yXNcQ2J5xLTujPLhw2LvaTc1HVLBPC28sYILRtezbYcXDcoWTJfajkdrOnO2CjiDyQ97xeOMHF19jidzeaqengrcsVJJNwNrtkcTeAHHltKjrHgvb02uWtIa4Dyw0bWjW2HkVYMWkanpoBFRUhbb1hFvpHVJLj22U2sVb2tSws2s3YKOLo4hifKefKeeJPDgNyh2mv5qm+m/7oUpzJy6+tpRM9mo7Wc02vqut5zb7vxBUW01/NU303/dChal5eaSLRoAMm09uEnvlepQoxo1/7bT9j/8AcepOqvUtHQIiISEREAREQBERAeEKN1+YuT5XaxgDSduoSwHuGHuUlRA0RmgzFyfE7WEAcRiOkJeB3Ow9ykyIgC5GWM3aSqsZ4WvIwDtjhy1hY25LrogIlHo6yaCD0TjyL3W+1SOioooWBkTGxtHmtAaPdvW0iCyC1MoUEUzCyWNsjT5rgCO0X2HmttEBEJdHOTSb9E5vIPdb3ldfJGbdJSm8ELWOOBdi51uGs65A5BdhFNyLI5mXMh09WwMnZrBp1hiQQdlwQtmgoo4Y2xRNDWMFmtG4d62kUEnDOa1J8IFV0LRKDrXGA1vTLRgXc+/au4iIDiZXzVoqk60sDS70x1Xd7m2v33XOpNHuTo3a3Ql/J7i4eGw96liJdkWRiija0BrQGtGAAAAA4ADYtDLmQqerYGTs1g06wxIIOzAjkuoiEmtk+ijhjbFE0NYwWa0bgtlEQBERAEREAREQBERAEREAREQBERAEREAREQBERAEREAREQBERAEREAREQBERAEREAREQBERAEREAREQBERAEREAREQBERAEREAREQBERAEREAREQBERAEREB//9k=;" vertex="1" parent="1">
          <mxGeometry x="475" y="599.5" width="67.36" height="60" as="geometry" />
        </mxCell>
        <mxCell id="Rh9i2QMeJr0mw_CJxQJY-13" value="registry&lt;br&gt;&amp;lt;prod&amp;gt;" style="text;html=1;strokeColor=none;fillColor=none;align=center;verticalAlign=middle;whiteSpace=wrap;rounded=0;" vertex="1" parent="1">
          <mxGeometry x="488.68" y="655.5" width="40" height="20" as="geometry" />
        </mxCell>
        <mxCell id="Rh9i2QMeJr0mw_CJxQJY-15" value="Push&lt;br&gt;Image" style="text;html=1;strokeColor=none;fillColor=none;align=center;verticalAlign=middle;whiteSpace=wrap;rounded=0;rotation=0;" vertex="1" parent="1">
          <mxGeometry x="413.68" y="614" width="40" height="20" as="geometry" />
        </mxCell>
        <mxCell id="Rh9i2QMeJr0mw_CJxQJY-16" value="" style="endArrow=classic;html=1;exitX=0.5;exitY=1;exitDx=0;exitDy=0;" edge="1" parent="1">
          <mxGeometry width="50" height="50" relative="1" as="geometry">
            <mxPoint x="375" y="671" as="sourcePoint" />
            <mxPoint x="620" y="677.5" as="targetPoint" />
            <Array as="points">
              <mxPoint x="375" y="732" />
              <mxPoint x="620" y="732" />
            </Array>
          </mxGeometry>
        </mxCell>
        <mxCell id="Rh9i2QMeJr0mw_CJxQJY-17" value="Publish chart" style="text;html=1;strokeColor=none;fillColor=none;align=center;verticalAlign=middle;whiteSpace=wrap;rounded=0;" vertex="1" parent="1">
          <mxGeometry x="438.68" y="710" width="90" height="20" as="geometry" />
        </mxCell>
        <mxCell id="Rh9i2QMeJr0mw_CJxQJY-18" value="registry&lt;br&gt;&amp;lt;prod&amp;gt;" style="text;html=1;strokeColor=none;fillColor=none;align=center;verticalAlign=middle;whiteSpace=wrap;rounded=0;" vertex="1" parent="1">
          <mxGeometry x="600" y="654.5" width="40" height="20" as="geometry" />
        </mxCell>
        <mxCell id="Rh9i2QMeJr0mw_CJxQJY-21" value="" style="endArrow=classic;html=1;" edge="1" parent="1">
          <mxGeometry width="50" height="50" relative="1" as="geometry">
            <mxPoint x="400" y="643" as="sourcePoint" />
            <mxPoint x="481" y="643" as="targetPoint" />
          </mxGeometry>
        </mxCell>
        <mxCell id="Rh9i2QMeJr0mw_CJxQJY-22" value="Argo&amp;nbsp;" style="rounded=1;whiteSpace=wrap;html=1;" vertex="1" parent="1">
          <mxGeometry x="757" y="596" width="120" height="60" as="geometry" />
        </mxCell>
        <mxCell id="Rh9i2QMeJr0mw_CJxQJY-33" value="" style="endArrow=classic;html=1;exitX=0;exitY=0.5;exitDx=0;exitDy=0;entryX=1;entryY=0.5;entryDx=0;entryDy=0;dashed=1;" edge="1" parent="1" source="Rh9i2QMeJr0mw_CJxQJY-22" target="Rh9i2QMeJr0mw_CJxQJY-11">
          <mxGeometry width="50" height="50" relative="1" as="geometry">
            <mxPoint x="660" y="680" as="sourcePoint" />
            <mxPoint x="710" y="630" as="targetPoint" />
          </mxGeometry>
        </mxCell>
        <mxCell id="Rh9i2QMeJr0mw_CJxQJY-34" value="listens" style="text;html=1;strokeColor=none;fillColor=none;align=center;verticalAlign=middle;whiteSpace=wrap;rounded=0;" vertex="1" parent="1">
          <mxGeometry x="690" y="630" width="40" height="20" as="geometry" />
        </mxCell>
        <mxCell id="Rh9i2QMeJr0mw_CJxQJY-35" value="Production" style="text;html=1;strokeColor=none;fillColor=none;align=center;verticalAlign=middle;whiteSpace=wrap;rounded=0;" vertex="1" parent="1">
          <mxGeometry x="760" y="599.5" width="60" height="20" as="geometry" />
        </mxCell>
      </root>
    </mxGraphModel>
  </diagram>
</mxfile>
